<?xml version="1.0" standalone="no"?>
<!DOCTYPE svg PUBLIC "-//W3C//DTD SVG 1.1//EN" "http://www.w3.org/Graphics/SVG/1.1/DTD/svg11.dtd">
<svg xmlns="http://www.w3.org/2000/svg">
<defs >
<font id="Literata" horiz-adv-x="602" ><font-face
    font-family="Literata Black"
    units-per-em="1000"
    panose-1="0 0 0 0 0 0 0 0 0 0"
    ascent="1177"
    descent="-308"
    alphabetic="0" />
<glyph unicode=" " horiz-adv-x="191" />
<glyph unicode="!" horiz-adv-x="390" d="M111 512Q109 540 108 559T106 594T105 625Q105 653 117 674T152 706T206 718Q235 718 276 705T344 657Q325 611 309 563T280 467T257 372T240 281T227 195H139L111 512ZM73 72Q73 113 103 138T181 164Q229 164 258 140T288
74Q288 45 274 25T233 -6T176 -17Q125 -17 99 6T73 72Z" />
<glyph unicode="&quot;" horiz-adv-x="505" d="M222 498H152L131 701Q130 707 130 711T130 719T130 724Q130 748 146 764T204 780Q240 780 253 767T267 735Q267 731 267 727T265 717T262 706L222 498ZM405 498H335L314 701Q313 707 313 711T313 719T313 724Q313
748 329 764T387 780Q423 780 436 767T450 735Q450 731 450 727T448 717T445 706L405 498Z" />
<glyph unicode="#" horiz-adv-x="701" d="M117 -17L141 122H37L57 216H160L186 348H79L99 443H204L227 567H354L331 443H451L473 567H601L578 443H669L651 348H561L535 216H632L613 122H517L492 -17H365L390 122H268L244 -17H117ZM312 348L287 216H408L434 348H312Z" />
<glyph unicode="$" horiz-adv-x="625" d="M254 -90L258 -14Q190 -13 139 3T58 51T29 125Q29 166 58 196T136 227Q166 227 193 214T234 177L219 150Q209 135 209 121T221 98T265 87L276 276Q193 303 146 332T79 399T59 494Q59 558 91 604T178 678T302 713L308 807H391L386
715Q448 711 491 693T556 645T579 573Q579 535 552 510T480 484Q458 484 433 494T395 518L416 564Q423 579 425 592T419 613T380 625L371 463Q375 462 379 460T389 454Q457 428 503 403T573 342T596 247Q596 199 578 158T525 82T445 25T342 -7L337 -90H254ZM349
106Q363 114 373 125T388 149T394 178Q394 192 390 203T378 223T357 240L349 106ZM289 500L297 619Q281 614 270 605T253 583T247 555Q247 545 251 536T264 519T289 500Z" />
<glyph unicode="%" horiz-adv-x="861" d="M578 597H707L313 -11H184L578 597ZM55 430Q55 491 81 528T147 581T233 597Q275 597 311 581T370 531T393 443Q393 388 370 351T306 294T217 274Q166 274 130 294T75 349T55 430ZM185 434Q185 410 188 393T201 366T223
357Q236 357 244 364T256 390T260 439Q260 465 257 482T246 507T224 516Q212 516 204 508T190 482T185 434ZM500 142Q500 203 526 240T592 293T678 309Q719 309 755 293T814 243T837 155Q837 100 814 63T750 6T662 -14Q611 -14 575 6T520 61T500 142ZM630 146Q630
122 633 105T645 78T668 69Q680 69 688 76T700 103T704 151Q704 177 701 194T690 219T669 228Q657 228 648 220T635 194T630 146Z" />
<glyph unicode="&amp;" horiz-adv-x="872" d="M394 -14Q293 -14 223 7T118 69T82 171Q82 221 107 257T183 317T305 355V363Q243 366 197 382T126 429T100 511Q100 556 123 593T189 658T293 700T428 715Q508 715 562 698T644 651T672 583Q672 543 647 520T581 496Q564
496 544 502T508 519T484 540L496 566Q506 587 505 602T491 626T451 634Q413 634 388 619T351 575T338 506Q338 460 364 435T425 410Q434 410 446 411T471 415L476 328Q432 327 397 310T341 262T320 184Q320 153 333 131T373 98T435 86Q477 86 507 101T554 144T571
208Q571 229 565 257T539 316L585 374L659 371Q675 371 682 375T690 392T684 425L670 473Q684 485 703 492T749 500Q791 500 821 476T852 404Q852 353 828 330T751 306Q729 306 700 310T651 320L650 313Q691 284 712 257T734 185Q734 143 707 107T633 44T524 1T394
-14Z" />
<glyph unicode="&apos;" horiz-adv-x="322" d="M222 498H152L131 701Q130 707 130 711T130 719T130 724Q130 748 146 764T204 780Q240 780 253 767T267 735Q267 731 267 727T265 717T262 706L222 498Z" />
<glyph unicode="(" horiz-adv-x="471" d="M84 284Q84 358 108 435T176 587T275 727T393 838L467 787Q427 737 398 672T349 535T321 390T311 250Q311 185 319 125T341 10T376 -90T423 -174L335 -225Q274 -160 228 -99T149 23T100 149T84 284Z" />
<glyph unicode=")" horiz-adv-x="464" d="M385 332Q385 258 364 183T304 36T207 -103T77 -225L4 -169Q67 -73 100 16T145 192T158 368Q158 434 151 493T130 607T97 708T53 791L136 840Q198 775 244 716T322 597T369 473T385 332Z" />
<glyph unicode="*" horiz-adv-x="497" d="M246 648L233 746Q229 775 239 792T277 809Q291 809 314 801T346 784L300 648L399 709Q417 720 432 721T458 712T468 679Q468 671 467 653T462 624L323 594L427 550Q444 543 452 533T461 506Q461 484 437 471T383 454L293
546L306 443Q308 422 297 406T264 391Q245 392 225 401T194 427L241 551L148 488Q136 480 116 478T81 484T65 518Q65 526 68 545T75 572L213 600L116 636Q93 645 85 655T77 678Q77 694 100 711T157 733L246 648Z" />
<glyph unicode="+" horiz-adv-x="582" d="M214 95L219 232H87L92 383H224L229 517H384L379 383H511L505 232H374L369 95H214Z" />
<glyph unicode="," horiz-adv-x="391" d="M112 -182L59 -106Q116 -71 137 -52T159 -9Q159 5 150 12T122 25L78 40Q70 76 81 110T121 165T197 186Q248 186 283 155T318 68Q318 38 305 5T266 -60T202 -124T112 -182Z" />
<glyph unicode="-" horiz-adv-x="381" d="M57 340H349L344 206H52L57 340Z" />
<glyph unicode="." horiz-adv-x="382" d="M74 76Q74 106 89 131T133 170T197 184Q233 184 259 172T300 139T315 88Q315 55 299 32T254 -4T189 -17Q155 -17 129 -7T89 25T74 76Z" />
<glyph unicode="/" horiz-adv-x="493" d="M-4 -110L374 802H521L144 -110H-4Z" />
<glyph unicode="0" horiz-adv-x="737" d="M36 306Q36 435 79 527T203 669T400 718Q503 718 572 682T676 575T711 399Q711 305 686 229T614 98T499 14T345 -16Q273 -16 216 5T119 69T58 170T36 306ZM390 604Q346 604 320 571T281 467T269 288Q269 238 272 202T286
144T313 110T357 98Q400 98 426 128T465 224T477 397Q477 473 469 518T442 583T390 604Z" />
<glyph unicode="1" horiz-adv-x="525" d="M189 590H50L57 687L398 721L424 679L399 106L519 90L512 0H37L42 89L169 105L189 590Z" />
<glyph unicode="2" horiz-adv-x="607" d="M35 547Q35 597 66 634T156 694T300 716Q429 716 501 666T573 518Q573 477 559 443T515 378T439 313T330 240T186 149V143H314Q343 143 364 146T401 157T429 185T453 238H559L528 0H49L32 139Q85 184 132 224T217 303T284
376T327 445T342 512Q342 561 323 592T249 623Q217 623 203 612T190 585T207 551L229 527Q209 497 185 480T122 463Q86 463 61 486T35 547Z" />
<glyph unicode="3" horiz-adv-x="617" d="M555 562Q555 523 533 489T469 429T363 389V381Q437 376 485 359T557 308T581 221Q581 172 554 129T478 54T363 4T219 -14Q153 -14 107 1T36 44T11 106Q11 151 36 176T98 202Q125 202 148 190T191 156L174 123Q167 109
167 98T177 79T208 72Q244 72 273 90T319 142T336 225Q336 277 308 295T242 314Q230 314 217 313T180 308L168 400Q240 411 282 440T324 540Q324 582 301 608T235 634Q210 634 199 625T189 603T202 576L226 552Q204 517 180 500T130 483Q87 483 66 505T44 561Q44
596 62 624T114 673T195 705T301 716Q382 716 439 698T525 645T555 562Z" />
<glyph unicode="4" horiz-adv-x="675" d="M540 282H656L649 164H537L534 106L627 92L621 0H168L174 90L316 108L320 164H23L15 264L355 705L551 718L562 709L540 282ZM324 282L340 537L138 282H324Z" />
<glyph unicode="5" horiz-adv-x="616" d="M344 235Q344 270 333 292T302 325T253 335Q224 335 196 329T130 305L88 359L120 687L137 701H549L532 549H202L183 408Q212 421 237 429T293 442T366 447Q426 447 473 426T547 364T574 262Q574 180 530 118T407 21T226
-14Q166 -14 119 0T46 43T19 112Q19 134 29 155T59 190T109 204Q138 204 160 193T198 162L184 130Q178 115 178 102T187 81T224 73Q248 73 270 85T308 118T334 169T344 235Z" />
<glyph unicode="6" horiz-adv-x="657" d="M578 -14Q486 -14 423 21T326 123T293 279Q293 381 319 461T394 599T515 686T677 716Q743 716 787 701T853 657T875 593Q875 559 852 534T784 509Q759 509 734 519T694 542L706 570Q718 598 710 612T672 626Q638 626 611
610T562 561T527 482T507 376L513 373Q549 410 596 432T697 454Q759 454 801 432T866 368T888 270Q888 182 849 119T739 21T578 -14ZM589 99Q620 99 639 115T667 162T676 234Q676 283 660 306T610 330Q592 330 575 324T542 307T509 282Q506 219 514 179T541 119T589
99Z" />
<glyph unicode="7" horiz-adv-x="570" d="M111 0L105 10L459 549H247Q221 549 205 544T178 527T158 490L137 438L39 453L68 701H564L580 585L351 0H111Z" />
<glyph unicode="8" horiz-adv-x="618" d="M18 168Q18 210 35 242T85 300T160 351Q116 380 93 416T67 502Q66 549 85 588T141 655T231 700T348 716Q421 716 472 699T550 651T577 574Q577 537 561 506T513 450T434 409Q497 383 532 353T582 288T597 216Q597 148
558 96T450 15T291 -14Q206 -14 145 8T51 71T18 168ZM241 310Q222 291 205 262T188 194Q188 165 199 142T234 106T292 92Q326 92 346 105T376 139T386 178Q386 198 376 215T346 247T300 278T241 310ZM258 550Q258 530 268 513T301 479T357 445Q373 459 385 476T403
514T410 557Q410 588 390 605T338 623Q313 623 296 615T268 590T258 550Z" />
<glyph unicode="9" horiz-adv-x="654" d="M275 -14Q208 -14 162 6T87 54T40 105L99 178Q126 154 166 131T255 107Q288 107 313 120T358 159T391 226T414 320L409 323Q386 290 339 265T238 240Q178 240 133 262T62 329T36 435Q36 519 73 582T181 680T347 716Q437
716 500 682T596 581T629 416Q629 322 604 244T531 107T419 18T275 -14ZM319 371Q336 371 353 377T385 394T414 419Q414 474 409 515T387 579T333 602Q305 602 286 586T256 540T246 463Q246 420 262 396T319 371Z" />
<glyph unicode=":" horiz-adv-x="426" d="M94 76Q94 106 109 131T153 170T217 184Q253 184 279 172T320 139T335 88Q335 55 319 32T274 -4T209 -17Q175 -17 149 -7T109 25T94 76ZM111 467Q111 497 126 522T170 561T234 575Q270 575 296 563T337 530T352 479Q352
446 336 423T291 387T226 374Q192 374 166 384T126 416T111 467Z" />
<glyph unicode=";" horiz-adv-x="406" d="M106 467Q106 497 121 522T165 561T229 575Q265 575 291 563T332 530T347 479Q347 446 331 423T286 387T221 374Q187 374 161 384T121 416T106 467ZM118 -182L65 -106Q122 -71 143 -52T165 -9Q165 5 156 12T128 25L84
40Q76 76 87 110T127 165T203 186Q254 186 289 155T324 68Q324 38 311 5T272 -60T208 -124T118 -182Z" />
<glyph unicode="&lt;" horiz-adv-x="582" d="M400 37L69 244L71 324L418 532L484 413L263 281L474 156L400 37Z" />
<glyph unicode="=" horiz-adv-x="582" d="M83 125L92 276H500L491 125H83ZM95 330L104 481H511L502 330H95Z" />
<glyph unicode="&gt;" horiz-adv-x="582" d="M163 38L95 160L311 286L103 415L177 532L508 324L506 244L163 38Z" />
<glyph unicode="?" horiz-adv-x="581" d="M180 403Q231 420 265 438T316 480T333 540Q333 585 311 606T245 628Q213 628 199 617T185 590T202 557L223 534Q213 507 193 489T137 471Q94 471 72 496T49 554Q49 600 80 636T167 694T301 716Q379 716 434 695T520 633T551
530Q551 489 532 444T463 358T318 288L339 195H226L180 403ZM177 72Q177 113 207 138T284 164Q332 164 361 140T391 74Q391 45 377 25T337 -6T279 -17Q229 -17 203 6T177 72Z" />
<glyph unicode="@" horiz-adv-x="1092" d="M425 -228Q352 -228 287 -207T172 -141T94 -29T65 130Q65 232 100 320T204 476T369 580T589 618Q728 618 830 578T986 457T1041 257Q1041 167 1003 104T902 7T763 -27Q722 -27 694 -16T654 19T648 76L680 239L670 240L637
134Q618 74 594 39T538 -12T466 -27Q420 -27 390 -10T342 33T317 90T309 147Q309 247 342 308T428 397T542 426Q580 426 625 412T709 373L796 403L815 397L765 87Q761 65 769 57T793 48Q812 48 830 64T862 108T886 174T895 256Q895 337 866 393T766 479T572 508Q471
508 391 466T264 348T217 168Q217 90 234 37T285 -48T367 -94T476 -109Q537 -109 591 -92T685 -50L736 -117Q687 -160 611 -194T425 -228ZM511 60Q526 60 539 68T565 100T595 167L654 328Q638 335 618 340T581 346Q556 346 532 321T493 249T478 134Q478 107 484
84T511 60Z" />
<glyph unicode="A" horiz-adv-x="774" d="M523 715L699 101L768 92L762 0H380L388 88L462 100L437 206H235L197 100L280 88L273 0H-1L9 91L73 100L297 694L523 715ZM263 303H414L361 582H357L263 303Z" />
<glyph unicode="B" horiz-adv-x="728" d="M677 550Q677 514 658 480T603 419T511 375V370Q604 360 655 320T707 205Q707 155 683 117T615 53T508 14T364 0H12L19 89L105 103L128 599L44 616L50 701H418Q546 701 611 664T677 550ZM374 399Q403 406 423 420T455
459T466 516Q466 564 442 584T365 604H359L336 102H344Q383 102 415 112T466 146T485 215Q485 247 474 268T444 300T401 311Q388 311 382 311T372 310L374 399Z" />
<glyph unicode="C" horiz-adv-x="699" d="M496 514Q511 544 511 566T495 602T444 615Q394 615 358 585T301 492T281 333Q281 255 295 206T339 135T418 113Q470 113 511 144T588 225L668 162Q642 119 601 79T503 12T369 -14Q268 -14 195 22T83 132T44 315Q44 445
90 534T220 669T415 716Q500 716 558 692T647 624T677 526Q677 485 651 459T586 432Q558 432 528 444T478 477L496 514Z" />
<glyph unicode="D" horiz-adv-x="830" d="M12 0L18 90L103 103L127 599L44 616L50 701H419Q534 701 618 664T749 558T796 391Q796 269 740 181T579 47T330 0H12ZM334 101H342Q405 101 454 133T531 230T559 388Q559 464 537 512T473 583T369 606H358L334 101Z" />
<glyph unicode="E" horiz-adv-x="662" d="M123 599L39 616L45 701H611L626 498L525 489L513 526Q505 555 495 571T467 593T420 599H354L345 415H535L530 304H342L331 103H410Q439 103 458 108T490 128T511 175L524 217H631L607 0H12L21 91L100 104L123 599Z" />
<glyph unicode="F" horiz-adv-x="641" d="M17 90L104 103L127 599L37 616L43 701H616L631 495L528 485L515 534Q509 558 500 572T471 593T418 599H358L349 402H532L528 297H346L337 105L463 92L456 0H12L17 90Z" />
<glyph unicode="G" horiz-adv-x="761" d="M719 339L707 79Q680 56 630 35T519 0T395 -14Q284 -14 205 23T85 133T44 314Q44 443 92 533T230 669T445 716Q530 716 590 693T682 629T715 534Q715 488 687 460T623 431Q597 431 567 445T519 479L540 528Q551 554 547
574T522 605T458 616Q398 616 359 584T301 487T281 326Q281 244 295 195T338 124T413 102Q439 102 462 108T504 128L508 234L420 251L432 339H719Z" />
<glyph unicode="H" horiz-adv-x="844" d="M518 301H337L327 105L397 90L391 0H12L18 89L96 100L120 600L38 617L43 701H424L420 615L351 601L342 407H522L531 598L464 615L469 701H847L842 612L762 598L738 105L828 92L822 0H434L440 90L507 102L518 301Z" />
<glyph unicode="I" horiz-adv-x="445" d="M123 597L35 614L42 701H447L439 614L354 600L331 106L428 93L424 0H12L16 93L100 103L123 597Z" />
<glyph unicode="J" horiz-adv-x="462" d="M138 596L33 614L39 701H462L455 614L368 599L347 100Q346 56 337 19T302 -57T224 -140T87 -244L20 -160Q51 -125 69 -96T97 -36T110 30T116 113L138 596Z" />
<glyph unicode="K" horiz-adv-x="823" d="M647 -14Q589 -14 554 5T496 69T450 193Q439 233 431 257T413 293T392 312T360 322L363 400L589 601L507 615L523 701H808L801 615L730 600L472 385V379Q525 375 561 364T622 329T662 258Q677 213 688 186T708 144T726
124T748 118Q762 118 773 121T793 128L815 40Q784 20 740 3T647 -14ZM12 0L18 91L96 104L119 598L37 615L42 701H434L428 615L350 598L327 104L416 91L410 0H12Z" />
<glyph unicode="L" horiz-adv-x="664" d="M18 90L97 101L121 599L38 616L44 701H461L455 616L352 597L328 103H404Q426 103 447 106T487 125T516 176L536 237H642L616 0H12L18 90Z" />
<glyph unicode="M" horiz-adv-x="1086" d="M766 597L599 6L410 -11L258 582L222 103L313 89L305 0H24L31 89L114 103L151 599L65 616L73 701H434L551 236L681 701H1035L1028 614L963 602L988 102L1069 89L1061 0H693L701 89L785 102L766 597Z" />
<glyph unicode="N" horiz-adv-x="792" d="M597 199L612 595L528 612L534 701H802L795 612L716 595L695 0L486 -19L218 567L203 102L288 89L282 0H12L18 89L92 102L116 599L37 610L43 701H379L597 199Z" />
<glyph unicode="O" horiz-adv-x="809" d="M44 328Q47 449 92 536T224 670T436 718Q555 718 630 677T742 561T775 383Q772 263 726 173T592 34T378 -16Q263 -16 188 26T78 146T44 328ZM280 350Q278 271 286 214T320 125T395 94Q449 94 478 125T519 215T535 361Q538
439 531 495T497 582T420 613Q374 613 345 582T299 491T280 350Z" />
<glyph unicode="P" horiz-adv-x="744" d="M375 353Q383 352 387 352T403 352Q444 352 469 386T495 489Q495 531 482 556T444 593T383 605H361L336 103L447 89L442 0H12L18 87L105 103L129 597L44 614L50 701H476Q537 701 585 688T665 649T715 586T732 502Q732
451 711 407T652 330T561 278T449 259Q427 259 407 260T372 262L375 353Z" />
<glyph unicode="Q" horiz-adv-x="804" d="M45 347Q45 464 91 547T223 673T432 716Q544 716 618 681T731 575T769 402Q769 321 743 254T669 136T554 58T408 27V16Q452 16 482 7T549 -26Q589 -49 612 -58T646 -63T660 -46L670 -5Q742 -1 774 -30T806 -106Q806 -131
794 -154T755 -193T684 -209Q651 -209 619 -200T551 -171T477 -121Q444 -96 421 -81T379 -57T342 -49Q327 -49 311 -52T275 -62T226 -83L189 -8Q213 3 242 14T295 31V42Q225 58 168 97T78 199T45 347ZM279 354Q279 283 289 234T325 158T399 132Q441 132 471 157T517
239T533 394Q533 461 524 510T489 586T417 613Q371 613 340 582T294 492T279 354Z" />
<glyph unicode="R" horiz-adv-x="806" d="M366 390Q407 397 433 412T471 455T484 523Q484 549 473 568T436 597T372 608H354L335 105L411 91L405 0H12L18 91L104 107L127 598L44 615L50 701H445Q536 701 597 682T690 624T722 528Q722 479 694 441T612 379T482
350V345Q532 340 561 327T608 294T637 249L678 160Q686 143 695 134T714 121T734 118Q746 118 756 121T778 129L799 44Q782 28 755 15T698 -6T640 -14Q596 -14 562 -5T504 31T463 108L432 199Q419 239 410 261T390 294T362 307L366 390Z" />
<glyph unicode="S" horiz-adv-x="625" d="M596 247Q596 191 571 144T501 61T396 6T265 -14Q195 -14 142 2T59 50T29 125Q29 166 58 196T136 227Q166 227 193 214T234 177L219 150Q209 134 209 119T224 96T278 87Q309 87 335 98T377 130T394 178Q394 204 380 221T334
253T252 284Q181 309 139 336T78 401T59 494Q59 548 82 589T145 658T239 701T353 716Q425 716 475 699T552 650T579 573Q579 535 552 510T480 484Q458 484 433 494T395 518L416 564Q423 581 425 595T412 618T347 627Q317 627 295 619T260 594T247 555Q247 538 259
524T302 494T389 454Q457 428 503 403T573 342T596 247Z" />
<glyph unicode="T" horiz-adv-x="735" d="M149 90L251 103L277 609H247Q223 609 208 603T183 582T165 539L142 460L32 471L64 701H710L732 469L625 460L604 538Q597 567 588 582T564 603T526 609H508L482 102L589 90L584 0H142L149 90Z" />
<glyph unicode="U" horiz-adv-x="852" d="M747 104L827 91L819 0H552L545 12L588 391H582Q554 283 526 206T462 80T382 9T276 -14Q205 -14 161 12T99 96T85 244L106 599L34 614L44 701H420L411 614L333 597L312 229Q310 191 312 169T323 138T352 129Q378 129 402
155T448 228T488 331T520 449T541 570L545 597L478 614L488 701H850L840 614L773 597L747 104Z" />
<glyph unicode="V" horiz-adv-x="775" d="M441 158H445L611 598L527 616L533 701H805L799 612L721 595L488 -4L278 -19L80 598L13 613L20 701H415L410 613L321 600L441 158Z" />
<glyph unicode="W" horiz-adv-x="1099" d="M809 173H813L939 598L858 616L865 701H1130L1122 612L1048 595L875 0L646 -10L561 305L471 -4L247 -10L76 598L13 613L21 701H406L399 613L301 600L418 162H422L512 456L463 686L682 702L809 173Z" />
<glyph unicode="X" horiz-adv-x="810" d="M9 0L16 89L95 105L293 338L98 599L25 613L31 701H438L432 613L350 601L452 457L581 598L505 616L511 701H790L784 612L703 595L508 384L712 103L798 88L791 0H371L377 88L457 100L352 255L226 102L303 85L297 0H9Z" />
<glyph unicode="Y" horiz-adv-x="747" d="M425 366H430L577 598L496 616L502 701H777L770 612L692 595L481 262L472 104L563 91L557 0H150L157 91L242 104L253 269L72 598L13 612L20 701H402L396 613L304 600L425 366Z" />
<glyph unicode="Z" horiz-adv-x="707" d="M668 618L306 111H408Q440 111 466 115T511 137T543 200L557 246H668L639 0H39V83L409 595H291Q257 595 238 592T205 574T178 521L156 461L53 471L87 701H661L668 618Z" />
<glyph unicode="[" horiz-adv-x="452" d="M292 -106L398 -120L385 -212H82L129 812H435L429 719L330 710L292 -106Z" />
<glyph unicode="\" horiz-adv-x="525" d="M349 -110L28 802H180L503 -110H349Z" />
<glyph unicode="]" horiz-adv-x="456" d="M169 706L59 720L71 812H377L330 -212H30L36 -125L130 -116L169 706Z" />
<glyph unicode="^" horiz-adv-x="698" d="M655 369L530 296L367 539L179 296L61 369L326 712H431L655 369Z" />
<glyph unicode="_" horiz-adv-x="527" d="M1 -124L5 -23H500L496 -124H1Z" />
<glyph unicode="`" horiz-adv-x="500" d="M378 617L333 571L148 670Q132 679 120 694T108 732Q108 762 130 785T213 818L378 617Z" />
<glyph unicode="a" horiz-adv-x="697" d="M616 145Q615 125 619 113T643 101Q654 101 666 104T686 111L704 35Q691 25 665 13T607 -6T543 -14Q506 -14 477 -1T432 39T423 111L448 288L436 290L407 189Q396 149 383 113T351 48T298 3T214 -14Q154 -14 114 11T53
83T32 191Q32 266 51 328T107 436T198 506T323 531Q375 531 412 521T469 501L581 529L629 510L616 145ZM279 89Q288 89 294 94T309 116T327 165T352 254L400 437Q396 440 385 443T360 447Q325 447 303 423T269 359T253 268T248 166Q248 132 252 116T263 94T279
89Z" />
<glyph unicode="b" horiz-adv-x="685" d="M330 -14Q302 -14 262 -10T181 1T106 17T54 35L82 665L1 681L7 767H255L272 756L260 426L225 189L234 187L271 328Q291 402 317 448T381 515T474 536Q534 536 573 507T632 426T652 306Q652 204 611 132T496 23T330 -14ZM405
429Q394 429 387 423T373 400T357 349T331 258L283 85Q291 81 303 78T329 75Q362 75 383 101T415 169T432 255T437 336Q437 367 435 387T427 418T405 429Z" />
<glyph unicode="c" horiz-adv-x="572" d="M343 531Q400 531 446 514T519 464T546 381Q546 341 520 316T453 290Q427 290 399 304T359 345L384 379Q398 398 397 412T385 435T357 444Q328 444 309 424T278 372T262 302T257 229Q257 192 265 165T291 123T343 109Q370
109 392 119T433 144T468 175L530 97Q520 85 501 66T451 29T380 -1T286 -14Q218 -14 160 13T67 93T32 226Q32 289 50 344T105 442T202 507T343 531Z" />
<glyph unicode="d" horiz-adv-x="696" d="M615 147Q614 126 618 114T640 101Q649 101 663 104T686 111L703 35Q693 26 669 15T611 -5T537 -14Q466 -14 441 22T422 113L447 289L435 292L403 181Q393 144 380 110T347 47T295 3T213 -14Q176 -14 143 -1T85 38T45
106T31 206Q31 275 50 334T106 438T198 506T325 531Q375 531 405 523T454 506L462 660L358 681L369 767H614L634 746L615 147ZM275 89Q284 89 291 93T305 111T321 155T345 237L399 437Q393 440 386 442T371 446T355 448Q321 448 300 425T267 361T251 268T246 161Q246
132 251 111T275 89Z" />
<glyph unicode="e" horiz-adv-x="570" d="M349 531Q436 531 488 496T541 395Q541 368 534 344T504 299T442 259T334 219L254 196Q259 165 273 148T306 123T346 116Q368 116 391 123T438 143T482 170L534 88Q506 58 474 38T409 6T344 -9T289 -14Q215 -14 157 12T66
92T32 225Q32 326 71 394T181 496T349 531ZM350 396Q350 415 346 425T335 440T320 444Q304 444 290 431T266 385T250 295L282 304Q304 311 319 320T342 348T350 396Z" />
<glyph unicode="f" horiz-adv-x="461" d="M375 706Q351 706 340 692T324 654T318 602L313 517H441L436 428H312L304 195Q303 146 295 108T271 36T234 -32T185 -107Q159 -144 133 -172T78 -215T18 -230Q-16 -230 -40 -209T-65 -156Q-65 -136 -54 -114T-18 -69L31
-99Q57 -115 69 -109T83 -80Q84 -65 84 -53T85 -28T86 0T88 35L103 428H25L33 510L106 518L109 559Q112 606 133 646T188 718T268 765T365 782Q415 782 458 770T529 732T557 665Q557 623 535 598T462 572Q442 572 419 580T384 603L397 646Q407 679 402 692T375
706Z" />
<glyph unicode="g" horiz-adv-x="675" d="M447 289L437 290L404 173Q384 101 356 64T291 13T214 0Q144 0 105 29T49 104T32 199Q32 294 66 369T167 487T329 531Q358 531 398 524T469 501L581 529L629 510L613 97Q611 40 592 -10T539 -100T459 -170T356 -214T236
-230Q195 -230 161 -222T104 -199T67 -162T54 -113Q54 -79 78 -54T146 -28Q157 -28 175 -32T211 -43T236 -59L226 -86Q220 -102 219 -115T226 -136T261 -144Q315 -144 347 -111T397 -20T425 115L447 289ZM280 103Q290 103 299 112T318 144T340 210T370 320L400
437Q393 442 382 444T360 447Q329 447 308 424T273 362T253 279T246 189Q246 144 251 124T280 103Z" />
<glyph unicode="h" horiz-adv-x="680" d="M687 32Q670 22 649 14T606 -1T562 -11T522 -14Q466 -14 437 6T400 58T394 126L416 356Q419 374 416 380T405 387Q398 387 393 381T382 358T367 310L282 0H56L81 668L1 681L12 767H255L276 743L263 410L229 138L240 136L299
365Q309 403 322 434T355 486T405 519T478 531Q533 531 566 512T612 456T622 370L604 142Q602 123 604 111T625 99Q638 99 646 101T665 108L687 32Z" />
<glyph unicode="i" horiz-adv-x="374" d="M96 381Q98 399 93 409T75 420Q63 420 50 417T20 407L-7 492Q13 503 57 517T159 531Q203 531 236 518T288 473T302 390L284 142Q283 123 288 111T309 99Q323 99 335 102T358 108L376 32Q360 22 331 12T268 -6T206 -14Q157
-14 128 0T87 46T78 129L96 381ZM93 697Q93 739 123 766T203 794Q236 794 260 782T299 747T313 697Q313 655 283 628T204 600Q153 600 123 627T93 697Z" />
<glyph unicode="j" horiz-adv-x="372" d="M309 133Q306 72 284 23T229 -69T159 -154Q146 -169 126 -186T80 -216T23 -229Q-15 -229 -37 -209T-60 -154Q-60 -132 -49 -110T-25 -74L36 -101Q54 -109 65 -109T82 -103T89 -84Q91 -69 92 -52T94 -16T96 23L114 378Q115
399 109 409T89 419Q78 419 67 417T33 407L16 500Q30 507 56 515T116 530T185 536Q232 536 263 519T309 473T322 404L309 133ZM82 697Q82 739 112 766T192 794Q225 794 249 782T288 747T302 697Q302 655 272 628T193 600Q142 600 112 627T82 697Z" />
<glyph unicode="k" horiz-adv-x="627" d="M83 665L1 681L12 767H258L274 756L256 321Q291 330 328 342T399 374Q428 390 434 402T427 424L397 444Q402 485 428 508T497 532Q535 532 556 509T578 452Q578 408 550 384T485 338Q464 326 453 320T428 308L498 164Q512
136 527 118T563 99Q574 99 584 102T603 110L629 41Q619 31 594 18T537 -4T469 -14Q414 -14 384 11T335 79L264 251Q261 250 258 250T251 249L240 0H52L83 665Z" />
<glyph unicode="l" horiz-adv-x="354" d="M85 665L1 680L12 767H264L282 756L262 142Q261 126 269 113T299 99Q310 99 322 101T343 107L361 32Q351 25 325 15T265 -5T198 -14Q157 -14 126 -2T78 38T63 110L85 665Z" />
<glyph unicode="m" horiz-adv-x="992" d="M418 334Q420 358 421 372T408 386Q401 386 396 378T386 348T369 291L286 0H65L80 387Q81 408 76 414T57 420Q47 420 35 415T18 407L-7 492Q21 505 49 513T107 526T166 530Q219 530 248 503T270 413L236 139L248 137L306
360Q320 413 338 451T388 509T472 530Q517 530 545 516T583 472T587 393L551 139L560 137L617 350Q634 412 655 451T710 510T802 530Q851 530 881 512T924 464T934 398L916 150Q915 127 919 113T940 99Q951 99 959 101T978 107L999 32Q977 17 947 7T886 -8T834
-14Q792 -14 761 -2T716 38T705 105L730 349Q732 372 729 379T718 386Q710 386 705 379T693 346T672 269L601 0H383L418 334Z" />
<glyph unicode="n" horiz-adv-x="686" d="M693 32Q678 22 647 11T580 -7T515 -14Q451 -14 422 16T398 102L423 361Q425 375 421 381T411 387Q403 387 399 382T389 361T374 310L289 0H64L80 390Q81 405 76 412T61 420Q53 420 43 417T18 409L-7 492Q4 498 32 507T96
524T166 531Q219 531 249 505T272 423L236 139L248 136L312 382Q324 429 344 462T398 513T488 531Q535 531 567 514T616 464T629 391L611 142Q610 120 614 110T635 99Q646 99 656 102T672 107L693 32Z" />
<glyph unicode="o" horiz-adv-x="642" d="M301 -17Q208 -17 149 15T62 105T33 238Q33 298 50 351T104 446T201 510T345 534Q434 534 492 504T580 418T609 281Q609 224 593 171T541 75T446 8T301 -17ZM314 75Q349 75 364 105T382 182T386 282Q386 327 384 362T369
418T330 439Q314 439 301 430T278 399T263 336T258 233Q258 184 261 149T277 94T314 75Z" />
<glyph unicode="p" horiz-adv-x="704" d="M83 366Q85 397 81 408T60 419Q52 419 39 416T18 410L-2 490Q18 500 48 509T113 525T180 531Q235 531 259 497T275 410L248 230L260 227L292 336Q303 373 314 407T345 470T397 514T483 531Q538 531 580 507T647 435T672
316Q672 256 656 198T603 91T509 15T368 -14Q334 -14 303 -8T252 8L239 -132L343 -153L332 -229L66 -225L43 -198L71 64L83 366ZM423 428Q416 428 410 425T397 409T381 369T359 295L299 80Q310 74 321 72T342 69Q372 69 393 92T428 156T447 246T453 349Q453 375
451 390T444 414T435 425T423 428Z" />
<glyph unicode="q" horiz-adv-x="669" d="M604 -80Q603 -99 608 -110T627 -121Q641 -121 654 -117T674 -112L693 -187Q681 -197 655 -208T596 -227T529 -235Q459 -235 432 -201T408 -114L426 126L448 288L437 289L404 181Q384 113 363 70T306 7T207 -14Q151 -14
112 15T53 94T32 207Q32 308 69 380T172 492T319 531Q337 531 363 529T417 520T468 501L580 529L628 510L604 -80ZM278 89Q291 89 301 102T320 144T340 215T368 318L401 437Q395 440 389 442T376 446T356 448Q324 448 303 426T270 367T252 283T247 183Q247 123
253 106T278 89Z" />
<glyph unicode="r" horiz-adv-x="585" d="M79 387Q79 396 77 408T59 420Q49 420 38 417T16 409L-7 492Q32 510 66 518T129 529T175 531Q222 531 250 500T271 414L248 240L257 239L298 368Q314 418 333 454T382 511T459 531Q497 531 520 517T555 480T566 436Q566
406 547 374T476 322L457 351Q445 370 436 378T415 386Q407 386 399 380T381 355T357 305T318 218Q307 193 300 172T287 132T279 97T273 62L266 0H66L79 387Z" />
<glyph unicode="s" horiz-adv-x="555" d="M272 60Q307 60 329 70T352 103Q352 118 343 128T312 147T248 167Q193 182 147 200T72 253T43 347Q43 384 58 417T106 477T191 519T317 534Q370 534 418 522T497 483T528 412Q528 382 507 365T456 347Q432 347 406 355T370
373L375 392Q384 426 369 443T304 460Q280 460 262 454T233 437T223 412Q223 399 233 389T265 371T325 352Q363 342 399 331T464 301T510 256T527 185Q527 121 492 77T396 9T253 -14Q196 -14 146 -5T65 27T33 87Q33 126 58 145T118 164Q141 164 161 160T192 149L193
114Q194 88 207 74T272 60Z" />
<glyph unicode="t" horiz-adv-x="454" d="M14 511L94 519L160 673H306L298 517H418L414 428H295L282 186Q281 154 288 134T327 113Q349 113 369 122T412 147L458 74Q436 50 402 30T326 -2T236 -14Q154 -14 111 25T71 141L87 428H6L14 511Z" />
<glyph unicode="u" horiz-adv-x="675" d="M-7 486Q12 496 44 506T112 523T175 531Q235 531 263 502T286 416L260 160Q259 145 261 139T273 132Q279 132 283 138T292 160T304 200L398 517H623L599 128Q598 114 603 106T617 98Q629 98 641 101T661 108L682 32Q668
23 650 15T610 0T567 -10T526 -14Q465 -14 433 18T411 115L451 378L440 381L364 130Q347 74 322 43T266 -1T194 -14Q130 -14 92 25T57 126L76 384Q78 405 71 412T51 419Q43 419 35 418T14 411L-7 486Z" />
<glyph unicode="v" horiz-adv-x="593" d="M456 531Q503 531 530 501T558 416Q558 371 548 315T514 201T454 95T364 16T240 -14Q207 -14 176 -7T120 18T82 68T72 150L85 383Q86 395 85 404T77 417T54 418L27 411L3 493Q32 507 76 519T184 531Q245 531 272 502T295
420L278 174Q276 147 278 132T289 112T317 106Q336 106 354 120T389 159T418 215T438 282T445 351Q445 370 441 379T430 392T410 401L367 416Q361 460 373 485T408 520T456 531Z" />
<glyph unicode="w" horiz-adv-x="869" d="M570 518Q578 484 581 447T584 365Q584 342 583 322T580 280T573 225Q566 175 565 150T569 116T594 107Q614 107 633 121T669 159T698 213T717 275T724 338Q724 360 719 371T705 387T684 397L645 411Q635 473 661 502T726
531Q786 531 810 495T834 404Q834 358 823 302T790 191T733 89T654 14T552 -14Q534 -14 515 -9T478 8T449 40T433 90Q416 59 389 36T326 -1T244 -14Q218 -14 187 -9T129 13T86 63T73 150L85 397Q86 408 82 413T69 420T49 417L27 410L3 493Q24 505 54 513T118 526T180
531Q218 531 244 520T284 485T294 424L281 221Q278 177 278 152T286 117T311 107Q332 107 346 117T370 148T385 196T393 261T395 339Q395 367 394 391T391 441T384 503L570 518Z" />
<glyph unicode="x" horiz-adv-x="621" d="M385 345L427 377Q441 388 445 397T446 412T432 425L406 441Q411 490 442 510T508 531Q556 531 577 507T598 453Q598 424 580 401T537 360T489 325L416 274L488 144Q498 126 508 116T538 105Q550 105 559 108T578 116L613
37Q587 21 539 5T437 -12Q392 -12 364 -2T316 29T278 85L232 176L191 144Q167 125 160 110T159 85T180 70L207 60Q205 31 181 8T109 -16Q69 -16 47 8T24 61Q24 105 55 138T144 209L204 248L133 387Q126 401 119 411T96 421Q85 421 75 419T52 412L23 497Q35 503
62 511T125 525T193 531Q248 531 280 513T335 448L385 345Z" />
<glyph unicode="y" horiz-adv-x="598" d="M358 -56Q339 -95 320 -127T276 -183T222 -219T153 -232Q90 -232 60 -205T29 -138Q29 -91 64 -69T147 -44L157 -86Q162 -104 167 -114T180 -130T199 -135Q210 -135 217 -131T231 -119T243 -98L292 0H260Q214 0 184 11T128
61Q112 88 100 125T81 212T75 326Q75 337 75 347T76 367T76 388Q76 405 71 411T52 418Q48 418 39 418T16 413L-7 495Q11 504 39 512T99 525T160 531Q224 531 253 504T283 440Q283 427 283 413T281 379T280 332Q280 291 282 255T292 185T313 113Q316 105 319 101T327
95T336 93H338L435 325Q444 344 444 358T436 382T403 398L370 406Q365 465 392 498T471 531Q493 531 515 522T551 492T566 437Q566 415 561 392T546 344T523 290T493 226L358 -56Z" />
<glyph unicode="z" horiz-adv-x="558" d="M78 517H511L531 437L190 125Q210 133 225 137T254 144T280 147Q298 147 311 146T338 142T372 140Q390 140 402 148T424 176T447 231H538L498 0Q462 -15 416 -16T323 -11T236 2T169 9Q134 9 110 2T71 -13L22 79L346 374H221Q193
374 179 368T157 346T140 297L47 294L67 506L78 517Z" />
<glyph unicode="{" horiz-adv-x="459" d="M85 349Q112 349 131 355T162 380T173 439Q173 470 171 502T167 566T163 628T161 683Q161 753 208 787T334 821Q361 821 390 817T440 805L422 711Q413 715 405 716T391 718Q367 718 359 706T352 660Q353 615 355 580T359
517T362 469T364 435Q364 397 351 372T315 333T267 312Q299 302 318 285T346 244T356 185Q356 139 352 100T344 26T335 -36T330 -90Q330 -110 340 -118T361 -126Q368 -126 376 -125T391 -121L404 -211Q384 -217 362 -221T318 -228T283 -230Q207 -230 171 -196T135
-110Q135 -78 140 -41T151 36T163 115T168 189Q168 221 157 235T127 253T85 257V349Z" />
<glyph unicode="|" horiz-adv-x="496" d="M176 -110L206 802H343L314 -110H176Z" />
<glyph unicode="}" horiz-adv-x="460" d="M379 243Q352 243 332 238T302 213T291 152Q291 121 293 89T297 26T301 -35T303 -91Q303 -161 255 -195T130 -230Q103 -230 74 -226T23 -214L42 -119Q51 -123 59 -124T73 -126Q97 -126 105 -114T112 -68Q111 -23 109 12T105
75T102 123T100 157Q100 196 113 221T149 260T197 280Q165 290 146 307T117 349T108 407Q108 444 110 476T117 537T124 591T130 639T133 682Q133 702 123 710T102 718Q96 718 88 717T73 713L59 802Q89 812 125 816T180 821Q257 821 293 787T329 701Q329 671 324
633T313 556T301 477T296 403Q296 371 307 357T337 339T379 335V243Z" />
<glyph unicode="~" horiz-adv-x="644" d="M446 246Q419 246 389 251T330 262T276 273T233 278Q211 278 193 262T156 219L74 254Q86 345 125 388T217 431Q243 431 273 426T333 414T388 402T431 396Q447 396 460 403T486 424T509 458L591 422Q583 360 562 321T511
264T446 246Z" />
<glyph unicode="&#xa0;" horiz-adv-x="191" />
<glyph unicode="&#xa1;" horiz-adv-x="370" d="M269 -5Q271 -33 272 -52T274 -87T275 -118Q275 -146 263 -167T228 -199T174 -211Q145 -211 104 -198T36 -150Q55 -104 71 -56T100 40T123 135T140 226T153 312H241L269 -5ZM307 435Q307 394 277 369T199 343Q151
343 122 367T92 433Q92 462 106 482T147 513T204 524Q255 524 281 501T307 435Z" />
<glyph unicode="&#xa2;" horiz-adv-x="572" d="M235 -37L246 34Q187 42 139 70T63 149T34 271Q34 353 64 421T160 531T329 576L341 656H424L411 569Q451 561 482 542T530 494T548 426Q548 386 522 361T455 335Q429 335 401 348T361 389L386 423Q397 435 398 448T396
468L347 155Q350 155 353 155T359 155Q382 158 402 168T439 192T470 219L532 141Q524 131 509 116T470 85T417 56T347 37Q343 36 339 36T330 34L319 -37H235ZM271 197L312 470Q297 457 287 435T270 385T262 330T259 274Q259 250 261 231T271 197Z" />
<glyph unicode="&#xa3;" horiz-adv-x="715" d="M84 60Q109 82 139 97T199 120T251 130Q232 156 216 179T187 225T163 270T141 315H47L54 397H122Q120 409 118 418T115 437T114 459Q114 533 150 591T248 682T391 716Q476 716 533 691T620 624T649 526Q649 485 623
459T558 432Q531 432 501 444T451 477L469 515Q483 543 481 566T464 602T419 615Q396 615 381 600T359 553T351 467Q351 445 352 430T354 397H500L496 315H357Q357 283 354 247T348 179T348 126Q368 124 392 119T435 106Q457 99 478 93T515 87Q534 87 549 100T564
140Q564 165 549 178T503 202L531 272Q604 255 637 215T670 121Q670 75 654 45T609 1T544 -14Q521 -14 501 -11T462 -1T426 11Q397 22 361 29T288 37Q250 37 203 24T124 -14L84 60Z" />
<glyph unicode="&#xa4;" horiz-adv-x="652" d="M101 318Q101 344 110 366T135 414L73 493L152 569L242 497Q264 502 292 505T348 508Q373 508 396 505T439 496L540 570L614 496L546 416Q559 394 565 372T572 318Q572 288 562 262T535 216L600 137L521 61L423 138Q398
131 374 128T329 125Q297 125 274 128T235 135L134 61L61 138L129 215Q111 243 106 268T101 318ZM291 318Q291 285 295 262T309 227T333 215Q351 215 362 228T379 263T384 318Q384 368 374 392T344 416Q327 416 309 396T291 318Z" />
<glyph unicode="&#xa5;" horiz-adv-x="747" d="M150 0L157 91L242 104L249 217H55L63 300H235V301L206 353H58L66 436H160L72 598L13 612L20 701H402L396 613L304 600L425 366H430L577 598L496 616L502 701H777L770 612L692 595L591 436H676V351H537L506 301V300H676V217H479L472
104L563 91L557 0H150Z" />
<glyph unicode="&#xa6;" horiz-adv-x="496" d="M176 -110L189 289H326L314 -110H176ZM193 432L206 803H343L331 432H193Z" />
<glyph unicode="&#xa7;" horiz-adv-x="734" d="M663 322Q663 290 654 262T633 215T616 188L537 204Q541 232 522 250T469 283T392 310T306 340T226 379T168 435T146 517Q146 565 163 602T213 664T294 702T403 715Q468 715 513 696T583 647T608 586Q608 549 583
531T525 512Q501 512 481 521T448 542L464 573Q473 592 468 606T446 628T400 636Q361 636 339 622T316 579Q316 555 341 538T405 508T489 480T573 445T638 395T663 322ZM77 236Q77 269 88 295T114 340T137 371L214 360Q214 329 234 309T289 276T365 250T446 224T521
187T576 131T597 44Q597 5 582 -30T535 -94T458 -138T352 -154Q277 -154 230 -135T161 -86T139 -28Q139 7 161 30T221 54Q246 54 267 44T302 21L284 -13Q273 -33 281 -46T309 -66T354 -74Q395 -74 417 -57T439 -10Q439 15 413 31T346 60T259 86T171 118T104 165T77
236Z" />
<glyph unicode="&#xa8;" horiz-adv-x="500" d="M49 690Q49 733 79 758T152 783Q199 783 225 760T251 695Q251 652 222 627T147 602Q101 602 75 625T49 690ZM296 691Q296 734 326 759T400 784Q447 784 472 761T498 696Q498 653 469 628T395 603Q349 603 323 626T296 691Z" />
<glyph unicode="&#xa9;" horiz-adv-x="911" d="M451 -12Q319 -12 237 33T117 154T79 325Q79 410 108 477T190 590T311 661T462 685Q551 685 621 662T740 596T815 491T841 352Q841 272 814 205T736 90T613 15T451 -12ZM451 131Q407 131 373 144T314 183T278 245T265
328Q265 382 281 422T325 490T390 531T469 546Q522 546 557 529T610 487T628 437Q628 417 618 398T574 379Q560 379 542 389T516 406L526 425Q539 450 528 464T478 478Q459 478 441 472T409 449T387 404T379 333Q379 302 388 274T419 229T472 211Q506 211 528 225T570
256L609 212Q594 193 573 175T521 144T451 131ZM459 76Q537 76 599 107T699 198T736 348Q736 426 706 483T615 574T460 607Q384 607 321 577T219 486T180 333Q180 261 206 203T294 110T459 76Z" />
<glyph unicode="&#xaa;" horiz-adv-x="519" d="M461 484Q460 468 464 461T481 453Q489 453 496 455T511 461L528 406Q512 391 490 381T445 367T407 362Q388 362 370 370T342 396T333 445L343 567H337L318 490Q314 474 306 452T283 410T242 376T179 362Q113 362
84 405T55 516Q55 583 79 633T148 713T260 742Q290 742 314 736T356 724L421 744L470 735L461 484ZM228 440Q240 440 248 452T268 499T297 602L313 665Q304 670 296 672T278 674Q255 674 240 657T217 613T205 555T202 497Q202 467 209 454T228 440Z" />
<glyph unicode="&#xab;" horiz-adv-x="639" d="M344 446Q333 420 318 393T288 340T259 297T238 269Q255 254 272 226T307 162T339 82L290 45Q257 79 217 113T133 180T45 235L59 332Q105 350 149 376T232 431T294 485L344 446ZM594 446Q583 420 568 393T538 340T509
297T488 269Q505 254 522 226T557 162T589 82L540 45Q507 79 467 113T383 180T295 235L309 332Q355 350 399 376T482 431T544 485L594 446Z" />
<glyph unicode="&#xac;" horiz-adv-x="582" d="M339 126L345 256H75L83 407H511L497 126H339Z" />
<glyph unicode="&#xad;" horiz-adv-x="441" d="M47 331H399L394 211H42L47 331Z" />
<glyph unicode="&#xae;" horiz-adv-x="543" d="M286 381Q207 381 158 410T85 486T62 585Q62 654 94 700T177 770T285 794Q389 794 449 738T509 590Q509 528 480 481T401 408T286 381ZM375 470Q386 470 403 475T432 488L426 520Q415 515 404 515Q392 515 387 522T373
551Q366 574 354 584T315 598V601Q322 601 340 603T373 618T389 659Q389 684 374 695T336 710T289 713H163L157 683L188 679L181 515L148 511L146 479H283L285 511L253 516L258 680H277Q290 680 302 676T314 654Q314 632 303 624T278 616H276L272 581Q282 579 288
572T301 539Q311 502 325 486T375 470Z" />
<glyph unicode="&#xaf;" horiz-adv-x="500" d="M109 756H444L437 614H102L109 756Z" />
<glyph unicode="&#xb0;" horiz-adv-x="411" d="M204 542Q123 542 85 576T47 659Q47 719 88 760T218 802Q293 802 333 769T373 681Q373 623 330 583T204 542ZM205 623Q222 623 239 631T257 674Q257 700 243 710T212 720Q195 720 180 708T164 667Q164 640 177 632T205 623Z" />
<glyph unicode="&#xb1;" horiz-adv-x="582" d="M211 203L215 320H83L88 471H220L224 585H379L375 471H507L501 320H370L366 203H211ZM65 1L73 152H499L491 1H65Z" />
<glyph unicode="&#xb2;" horiz-adv-x="465" d="M223 768Q200 768 185 761T168 741T181 710L198 690Q182 669 160 658T118 647Q78 647 64 668T49 708Q49 739 72 769T142 819T258 839Q326 839 368 821T429 774T449 710Q449 673 433 645T383 593T295 544T165 489H286Q317
489 336 497T366 521T383 559H456L437 374H61L48 481Q125 542 171 581T242 646T273 687T281 719Q281 740 270 754T223 768Z" />
<glyph unicode="&#xb3;" horiz-adv-x="469" d="M438 742Q438 701 407 675T330 633V627Q368 623 396 614T441 584T458 525Q458 494 442 465T391 413T307 376T190 362Q114 362 74 387T33 455Q33 476 49 499T103 523Q128 523 145 514T167 498L155 471Q148 458 156
447T196 435Q243 435 264 462T285 522Q285 554 267 566T227 579Q218 579 204 577T175 572L165 632Q222 643 242 664T263 723Q263 747 251 760T210 773Q191 773 179 767T165 751T172 730L187 713Q183 700 167 687T128 674Q91 674 75 694T58 730Q58 766 87 790T163
827T263 839Q306 839 346 831T412 802T438 742Z" />
<glyph unicode="&#xb4;" horiz-adv-x="500" d="M295 791Q307 808 323 818T359 828Q395 828 418 796T438 707L222 577L177 623L295 791Z" />
<glyph unicode="&#xb5;" horiz-adv-x="668" d="M43 -230L32 -225Q30 -200 29 -170T28 -101T28 -13Q28 26 30 84T37 212T47 358T60 508L257 525L279 506Q267 422 260 363T247 263T240 190T238 131Q251 122 268 114T301 105Q318 105 328 116T345 156T355 241L377
508L562 525L584 506Q579 473 574 435T563 359T554 285T548 220T545 171Q545 152 549 135T565 108T594 98Q605 98 617 101T639 108L660 32Q645 23 628 15T591 0T554 -10T522 -14Q480 -14 452 0T408 41T391 103H390Q390 69 383 43T360 2T314 -14Q285 -14 266 -2T236
20H235Q235 -4 237 -35T242 -101T249 -163T257 -208L43 -230Z" />
<glyph unicode="&#xb6;" horiz-adv-x="744" d="M421 -63Q423 -34 424 -13T427 24L452 700H722L715 621L628 604L610 123Q608 77 592 28T547 -69T478 -162Q458 -184 425 -206T356 -229Q312 -229 286 -207T260 -151Q260 -131 269 -110T294 -67L363 -105Q390 -119
404 -110T421 -63ZM399 136H381Q281 136 209 169T97 265T58 413Q58 523 100 585T223 674T413 700H425L399 136Z" />
<glyph unicode="&#xb7;" horiz-adv-x="418" d="M86 292Q86 323 101 348T144 387T208 401Q245 401 271 389T312 356T327 305Q327 272 311 249T265 213T201 200Q167 200 141 210T101 242T86 292Z" />
<glyph unicode="&#xb8;" horiz-adv-x="500" d="M301 13L279 -42Q290 -43 310 -46T350 -59T385 -86T399 -133Q399 -161 382 -188T329 -234T234 -252Q203 -252 169 -244T115 -224L139 -159Q157 -163 172 -165T206 -168Q220 -168 232 -166T253 -155T261 -133Q261
-120 250 -114T224 -108T192 -112L179 -91L217 13H301Z" />
<glyph unicode="&#xb9;" horiz-adv-x="401" d="M311 465L396 452L394 374H49L52 452L147 465L162 737H60L69 819L313 836L330 827L311 465Z" />
<glyph unicode="&#xba;" horiz-adv-x="477" d="M252 362Q158 362 109 408T59 540Q59 595 80 640T149 714T276 742Q370 742 415 699T460 570Q460 517 438 469T370 392T252 362ZM254 441Q275 441 287 455T303 500T308 574Q308 615 301 639T266 664Q247 664 235 648T218
602T213 528Q213 490 221 466T254 441Z" />
<glyph unicode="&#xbb;" horiz-adv-x="642" d="M50 84Q64 115 82 147T120 208T159 260Q141 281 123 307T87 367T51 451L104 488Q146 445 186 409T268 345T349 295L334 199Q261 164 199 123T100 45L50 84ZM300 84Q314 115 332 147T370 208T409 260Q391 281 373
307T337 367T301 451L354 488Q396 445 436 409T518 345T599 295L584 199Q511 164 449 123T350 45L300 84Z" />
<glyph unicode="&#xbc;" horiz-adv-x="1061" d="M281 -11L695 714H849L435 -11H281ZM564 595L649 582L647 504H302L305 582L400 595L415 867H313L322 949L566 966L583 957L564 595ZM971 163H1044L1043 76H969L966 0H816L819 76H606L598 158L829 447L973 457L985
451L971 163ZM821 163L827 343L687 163H821Z" />
<glyph unicode="&#xbd;" horiz-adv-x="1127" d="M280 -11L694 714H848L434 -11H280ZM563 595L648 582L646 504H301L304 582L399 595L414 867H312L321 949L565 966L582 957L563 595ZM861 395Q838 395 823 388T806 368T819 337L836 317Q820 296 798 285T756 274Q716
274 702 295T687 335Q687 366 710 396T780 446T896 466Q964 466 1006 448T1067 401T1087 337Q1087 300 1071 272T1021 220T933 171T803 116H924Q955 116 974 124T1004 148T1021 186H1094L1075 1H699L686 108Q763 169 809 208T880 273T911 314T919 346Q919 367 908
381T861 395Z" />
<glyph unicode="&#xbe;" horiz-adv-x="1090" d="M309 -11L723 714H877L463 -11H309ZM999 163H1072L1071 76H997L994 0H844L847 76H634L626 158L857 447L1001 457L1013 451L999 163ZM849 163L855 343L715 163H849ZM690 871Q690 830 659 804T582 762V756Q620 752
648 743T693 713T710 654Q710 623 694 594T643 542T559 505T442 491Q366 491 326 516T285 584Q285 605 301 628T355 652Q380 652 397 643T419 627L407 600Q400 587 408 576T448 564Q495 564 516 591T537 651Q537 683 519 695T479 708Q470 708 456 706T427 701L417
761Q474 772 494 793T515 852Q515 876 503 889T462 902Q443 902 431 896T417 880T424 859L439 842Q435 829 419 816T380 803Q343 803 327 823T310 859Q310 895 339 919T415 956T515 968Q558 968 598 960T664 931T690 871Z" />
<glyph unicode="&#xbf;" horiz-adv-x="572" d="M422 104Q371 87 337 69T286 27T269 -33Q269 -78 291 -99T357 -121Q389 -121 403 -110T417 -83T400 -50L379 -27Q389 0 409 18T465 36Q508 36 530 11T553 -47Q553 -93 522 -129T435 -187T301 -209Q223 -209 168 -188T82
-126T51 -23Q51 18 70 63T139 149T284 219L263 312H376L422 104ZM425 435Q425 394 395 369T318 343Q270 343 241 367T211 433Q211 462 225 482T265 513T323 524Q373 524 399 501T425 435Z" />
<glyph unicode="&#xc0;" horiz-adv-x="774" d="M523 715L699 101L768 92L762 0H380L388 88L462 100L437 206H235L197 100L280 88L273 0H-1L9 91L73 100L297 694L523 715ZM263 303H414L361 582H357L263 303ZM529 793L492 734L302 802Q260 817 248 836T236 880Q236
906 250 924T285 952T327 966L529 793Z" />
<glyph unicode="&#xc1;" horiz-adv-x="774" d="M523 715L699 101L768 92L762 0H380L388 88L462 100L437 206H235L197 100L280 88L273 0H-1L9 91L73 100L297 694L523 715ZM263 303H414L361 582H357L263 303ZM451 931Q470 948 484 954T520 961Q543 961 561 944T580
888Q580 878 578 862T569 835L330 734L293 793L451 931Z" />
<glyph unicode="&#xc2;" horiz-adv-x="774" d="M523 715L699 101L768 92L762 0H380L388 88L462 100L437 206H235L197 100L280 88L273 0H-1L9 91L73 100L297 694L523 715ZM263 303H414L361 582H357L263 303ZM613 782L573 728L416 828L247 729L212 787L360 941Q375
957 390 964T421 972Q430 972 442 970T466 964L613 782Z" />
<glyph unicode="&#xc3;" horiz-adv-x="774" d="M523 715L699 101L768 92L762 0H380L388 88L462 100L437 206H235L197 100L280 88L273 0H-1L9 91L73 100L297 694L523 715ZM263 303H414L361 582H357L263 303ZM489 762Q464 762 443 768T393 786Q359 800 339 807T311
815Q300 815 292 807T261 767L203 796Q228 851 245 881T280 924T320 937Q343 937 363 931T428 907Q462 894 480 888T514 882Q529 882 538 890T567 924L626 893Q605 845 583 817T538 775T489 762Z" />
<glyph unicode="&#xc4;" horiz-adv-x="774" d="M523 715L699 101L768 92L762 0H380L388 88L462 100L437 206H235L197 100L280 88L273 0H-1L9 91L73 100L297 694L523 715ZM263 303H414L361 582H357L263 303ZM190 857Q190 900 220 925T293 950Q340 950 366 927T392
862Q392 819 363 794T288 769Q242 769 216 792T190 857ZM437 858Q437 901 467 926T541 951Q587 951 613 928T639 863Q639 820 610 795T536 770Q490 770 464 793T437 858Z" />
<glyph unicode="&#xc5;" horiz-adv-x="774" d="M523 715L699 101L768 92L762 0H380L388 88L462 100L437 206H235L197 100L280 88L273 0H-1L9 91L73 100L297 694L523 715ZM263 303H414L361 582H357L263 303ZM413 746Q334 746 294 778T254 861Q254 896 271 925T326
972T425 990Q504 990 542 955T580 869Q580 817 538 782T413 746ZM413 809Q432 809 443 823T455 871Q455 903 445 915T418 927Q400 927 389 914T378 870Q378 837 387 823T413 809Z" />
<glyph unicode="&#xc6;" horiz-adv-x="1000" d="M-1 0L13 90L73 99L307 701H852L869 496L768 487L753 538Q745 564 735 577T706 595T654 600H567L611 414H817L812 305H632L685 102H742Q774 102 794 107T828 128T850 172L864 216H969L945 0H381L389 88L463 100L440
208H236L195 99L283 87L271 0H-1ZM264 303H420L367 587H361L264 303Z" />
<glyph unicode="&#xc7;" horiz-adv-x="699" d="M350 -252Q318 -252 285 -244T231 -224L254 -159Q272 -163 287 -165T322 -168Q336 -168 348 -166T369 -155T377 -133Q377 -120 366 -114T340 -108T308 -112L294 -91L323 -12Q236 -4 174 35T78 144T44 315Q44 445
90 534T220 669T415 716Q500 716 558 692T647 624T677 526Q677 485 651 459T586 432Q558 432 528 444T478 477L496 514Q511 544 511 566T495 602T444 615Q394 615 358 585T301 492T281 333Q281 255 295 206T339 135T418 113Q470 113 511 144T588 225L668 162Q645
123 609 86T523 22T407 -12L394 -42Q406 -43 425 -46T465 -59T500 -86T515 -133Q515 -161 498 -188T445 -234T350 -252Z" />
<glyph unicode="&#xc8;" horiz-adv-x="662" d="M123 599L39 616L45 701H611L626 498L525 489L513 526Q505 555 495 571T467 593T420 599H354L345 415H535L530 304H342L331 103H410Q439 103 458 108T490 128T511 175L524 217H631L607 0H12L21 91L100 104L123 599ZM465
793L428 734L238 802Q196 817 184 836T172 880Q172 906 186 924T221 952T263 966L465 793Z" />
<glyph unicode="&#xc9;" horiz-adv-x="662" d="M123 599L39 616L45 701H611L626 498L525 489L513 526Q505 555 495 571T467 593T420 599H354L345 415H535L530 304H342L331 103H410Q439 103 458 108T490 128T511 175L524 217H631L607 0H12L21 91L100 104L123 599ZM387
931Q406 948 420 954T456 961Q479 961 497 944T516 888Q516 878 514 862T505 835L266 734L229 793L387 931Z" />
<glyph unicode="&#xca;" horiz-adv-x="662" d="M123 599L39 616L45 701H611L626 498L525 489L513 526Q505 555 495 571T467 593T420 599H354L345 415H535L530 304H342L331 103H410Q439 103 458 108T490 128T511 175L524 217H631L607 0H12L21 91L100 104L123 599ZM549
782L509 728L352 828L183 729L148 787L296 941Q311 957 326 964T357 972Q366 972 378 970T402 964L549 782Z" />
<glyph unicode="&#xcb;" horiz-adv-x="662" d="M123 599L39 616L45 701H611L626 498L525 489L513 526Q505 555 495 571T467 593T420 599H354L345 415H535L530 304H342L331 103H410Q439 103 458 108T490 128T511 175L524 217H631L607 0H12L21 91L100 104L123 599ZM126
857Q126 900 156 925T229 950Q276 950 302 927T328 862Q328 819 299 794T224 769Q178 769 152 792T126 857ZM373 858Q373 901 403 926T477 951Q523 951 549 928T575 863Q575 820 546 795T472 770Q426 770 400 793T373 858Z" />
<glyph unicode="&#xcc;" horiz-adv-x="445" d="M123 597L35 614L42 701H447L439 614L354 600L331 106L428 93L424 0H12L16 93L100 103L123 597ZM616 793L579 734L389 802Q347 817 335 836T323 880Q323 906 337 924T372 952T414 966L616 793Z" />
<glyph unicode="&#xcd;" horiz-adv-x="445" d="M123 597L35 614L42 701H447L439 614L354 600L331 106L428 93L424 0H12L16 93L100 103L123 597ZM538 931Q557 948 571 954T607 961Q630 961 648 944T667 888Q667 878 665 862T656 835L417 734L380 793L538 931Z" />
<glyph unicode="&#xce;" horiz-adv-x="445" d="M123 597L35 614L42 701H447L439 614L354 600L331 106L428 93L424 0H12L16 93L100 103L123 597ZM700 782L660 728L503 828L334 729L299 787L447 941Q462 957 477 964T508 972Q517 972 529 970T553 964L700 782Z" />
<glyph unicode="&#xcf;" horiz-adv-x="445" d="M123 597L35 614L42 701H447L439 614L354 600L331 106L428 93L424 0H12L16 93L100 103L123 597ZM277 857Q277 900 307 925T380 950Q427 950 453 927T479 862Q479 819 450 794T375 769Q329 769 303 792T277 857ZM524
858Q524 901 554 926T628 951Q674 951 700 928T726 863Q726 820 697 795T623 770Q577 770 551 793T524 858Z" />
<glyph unicode="&#xd0;" horiz-adv-x="830" d="M419 701Q534 701 618 664T749 558T796 391Q796 269 740 181T579 47T330 0H12L18 90L103 103L112 295H17L25 422H119L127 599L44 616L50 701H419ZM342 101Q405 101 454 133T531 230T559 388Q559 464 537 512T473
583T369 606H358L349 422H472L464 295H343L334 101H342Z" />
<glyph unicode="&#xd1;" horiz-adv-x="792" d="M597 199L612 595L528 612L534 701H802L795 612L716 595L695 0L486 -19L218 567L203 102L288 89L282 0H12L18 89L92 102L116 599L37 610L43 701H379L597 199ZM504 762Q479 762 458 768T408 786Q374 800 354 807T326
815Q315 815 307 807T276 767L218 796Q243 851 260 881T295 924T335 937Q358 937 378 931T443 907Q477 894 495 888T529 882Q544 882 553 890T582 924L641 893Q620 845 598 817T553 775T504 762Z" />
<glyph unicode="&#xd2;" horiz-adv-x="809" d="M44 328Q47 449 92 536T224 670T436 718Q555 718 630 677T742 561T775 383Q772 263 726 173T592 34T378 -16Q263 -16 188 26T78 146T44 328ZM280 350Q278 271 286 214T320 125T395 94Q449 94 478 125T519 215T535
361Q538 439 531 495T497 582T420 613Q374 613 345 582T299 491T280 350ZM543 793L506 734L316 802Q274 817 262 836T250 880Q250 906 264 924T299 952T341 966L543 793Z" />
<glyph unicode="&#xd3;" horiz-adv-x="809" d="M44 328Q47 449 92 536T224 670T436 718Q555 718 630 677T742 561T775 383Q772 263 726 173T592 34T378 -16Q263 -16 188 26T78 146T44 328ZM280 350Q278 271 286 214T320 125T395 94Q449 94 478 125T519 215T535
361Q538 439 531 495T497 582T420 613Q374 613 345 582T299 491T280 350ZM465 931Q484 948 498 954T534 961Q557 961 575 944T594 888Q594 878 592 862T583 835L344 734L307 793L465 931Z" />
<glyph unicode="&#xd4;" horiz-adv-x="809" d="M44 328Q47 449 92 536T224 670T436 718Q555 718 630 677T742 561T775 383Q772 263 726 173T592 34T378 -16Q263 -16 188 26T78 146T44 328ZM280 350Q278 271 286 214T320 125T395 94Q449 94 478 125T519 215T535
361Q538 439 531 495T497 582T420 613Q374 613 345 582T299 491T280 350ZM627 782L587 728L430 828L261 729L226 787L374 941Q389 957 404 964T435 972Q444 972 456 970T480 964L627 782Z" />
<glyph unicode="&#xd5;" horiz-adv-x="809" d="M44 328Q47 449 92 536T224 670T436 718Q555 718 630 677T742 561T775 383Q772 263 726 173T592 34T378 -16Q263 -16 188 26T78 146T44 328ZM280 350Q278 271 286 214T320 125T395 94Q449 94 478 125T519 215T535
361Q538 439 531 495T497 582T420 613Q374 613 345 582T299 491T280 350ZM503 762Q478 762 457 768T407 786Q373 800 353 807T325 815Q314 815 306 807T275 767L217 796Q242 851 259 881T294 924T334 937Q357 937 377 931T442 907Q476 894 494 888T528 882Q543
882 552 890T581 924L640 893Q619 845 597 817T552 775T503 762Z" />
<glyph unicode="&#xd6;" horiz-adv-x="809" d="M44 328Q47 449 92 536T224 670T436 718Q555 718 630 677T742 561T775 383Q772 263 726 173T592 34T378 -16Q263 -16 188 26T78 146T44 328ZM280 350Q278 271 286 214T320 125T395 94Q449 94 478 125T519 215T535
361Q538 439 531 495T497 582T420 613Q374 613 345 582T299 491T280 350ZM204 857Q204 900 234 925T307 950Q354 950 380 927T406 862Q406 819 377 794T302 769Q256 769 230 792T204 857ZM451 858Q451 901 481 926T555 951Q601 951 627 928T653 863Q653 820 624
795T550 770Q504 770 478 793T451 858Z" />
<glyph unicode="&#xd7;" horiz-adv-x="582" d="M388 102L287 208L182 107L82 212L188 314L92 413L200 517L297 417L403 519L503 413L396 311L496 205L388 102Z" />
<glyph unicode="&#xd8;" horiz-adv-x="797" d="M12 -14L108 96Q74 140 59 199T44 328Q47 449 92 536T224 670T436 718Q548 718 621 681L650 716H794L707 615Q743 572 760 513T775 383Q772 263 726 173T592 34T378 -16Q322 -16 275 -6T191 26L157 -14H12ZM395 94Q449
94 478 125T519 215T535 361Q536 377 536 392T536 420L303 154Q316 125 338 110T395 94ZM279 291L511 557Q498 585 476 599T420 613Q374 613 345 582T299 491T280 350Q279 335 279 321T279 291Z" />
<glyph unicode="&#xd9;" horiz-adv-x="852" d="M747 104L827 91L819 0H552L545 12L588 391H582Q554 283 526 206T462 80T382 9T276 -14Q205 -14 161 12T99 96T85 244L106 599L34 614L44 701H420L411 614L333 597L312 229Q310 191 312 169T323 138T352 129Q378
129 402 155T448 228T488 331T520 449T541 570L545 597L478 614L488 701H850L840 614L773 597L747 104ZM568 793L531 734L341 802Q299 817 287 836T275 880Q275 906 289 924T324 952T366 966L568 793Z" />
<glyph unicode="&#xda;" horiz-adv-x="852" d="M747 104L827 91L819 0H552L545 12L588 391H582Q554 283 526 206T462 80T382 9T276 -14Q205 -14 161 12T99 96T85 244L106 599L34 614L44 701H420L411 614L333 597L312 229Q310 191 312 169T323 138T352 129Q378
129 402 155T448 228T488 331T520 449T541 570L545 597L478 614L488 701H850L840 614L773 597L747 104ZM490 931Q509 948 523 954T559 961Q582 961 600 944T619 888Q619 878 617 862T608 835L369 734L332 793L490 931Z" />
<glyph unicode="&#xdb;" horiz-adv-x="852" d="M747 104L827 91L819 0H552L545 12L588 391H582Q554 283 526 206T462 80T382 9T276 -14Q205 -14 161 12T99 96T85 244L106 599L34 614L44 701H420L411 614L333 597L312 229Q310 191 312 169T323 138T352 129Q378
129 402 155T448 228T488 331T520 449T541 570L545 597L478 614L488 701H850L840 614L773 597L747 104ZM652 782L612 728L455 828L286 729L251 787L399 941Q414 957 429 964T460 972Q469 972 481 970T505 964L652 782Z" />
<glyph unicode="&#xdc;" horiz-adv-x="852" d="M747 104L827 91L819 0H552L545 12L588 391H582Q554 283 526 206T462 80T382 9T276 -14Q205 -14 161 12T99 96T85 244L106 599L34 614L44 701H420L411 614L333 597L312 229Q310 191 312 169T323 138T352 129Q378
129 402 155T448 228T488 331T520 449T541 570L545 597L478 614L488 701H850L840 614L773 597L747 104ZM229 857Q229 900 259 925T332 950Q379 950 405 927T431 862Q431 819 402 794T327 769Q281 769 255 792T229 857ZM476 858Q476 901 506 926T580 951Q626 951
652 928T678 863Q678 820 649 795T575 770Q529 770 503 793T476 858Z" />
<glyph unicode="&#xdd;" horiz-adv-x="747" d="M425 366H430L577 598L496 616L502 701H777L770 612L692 595L481 262L472 104L563 91L557 0H150L157 91L242 104L253 269L72 598L13 612L20 701H402L396 613L304 600L425 366ZM467 931Q486 948 500 954T536 961Q559
961 577 944T596 888Q596 878 594 862T585 835L346 734L309 793L467 931Z" />
<glyph unicode="&#xde;" horiz-adv-x="753" d="M12 0L17 87L104 103L128 598L43 615L50 701H459L450 613L354 601L352 558H463Q510 558 557 549T642 518T703 461T727 371Q727 331 713 292T664 222T570 172T422 153H340L336 102L441 88L438 0H12ZM344 251H381Q418
251 445 263T487 301T502 369Q502 400 492 418T463 445T422 459T372 463H356L344 251Z" />
<glyph unicode="&#xdf;" horiz-adv-x="786" d="M531 67Q553 67 570 73T597 90T607 117Q607 138 588 151T539 174T475 198T411 228T361 272T342 337Q342 381 359 412T400 469T449 518T491 567T508 629Q508 651 498 666T467 688T417 696Q381 696 358 684T322 648T307
592L289 151Q287 97 263 41T204 -65T136 -156Q120 -175 100 -192T58 -219T9 -229Q-26 -229 -50 -210T-75 -156Q-75 -128 -61 -106T-28 -69L9 -94Q38 -113 56 -109T74 -72Q74 -70 74 -59T75 -32T76 -1T77 23L95 509Q97 573 115 624T173 710T277 763T433 782Q502
782 557 768T644 724T677 649Q677 618 665 595T632 555T590 523T548 494T515 464T502 427Q502 407 521 394T569 371T630 348T692 316T739 267T758 189Q758 146 741 109T693 45T617 2T517 -14Q441 -14 398 2T338 42T320 87Q320 124 341 147T410 171Q423 171 442
167T468 159V115Q468 101 472 90T489 73T531 67Z" />
<glyph unicode="&#xe0;" horiz-adv-x="697" d="M616 145Q615 125 619 113T643 101Q654 101 666 104T686 111L704 35Q691 25 665 13T607 -6T543 -14Q506 -14 477 -1T432 39T423 111L448 288L436 290L407 189Q396 149 383 113T351 48T298 3T214 -14Q154 -14 114
11T53 83T32 191Q32 266 51 328T107 436T198 506T323 531Q375 531 412 521T469 501L581 529L629 510L616 145ZM279 89Q288 89 294 94T309 116T327 165T352 254L400 437Q396 440 385 443T360 447Q325 447 303 423T269 359T253 268T248 166Q248 132 252 116T263 94T279
89ZM464 617L419 571L234 670Q218 679 206 694T194 732Q194 762 216 785T299 818L464 617Z" />
<glyph unicode="&#xe1;" horiz-adv-x="697" d="M616 145Q615 125 619 113T643 101Q654 101 666 104T686 111L704 35Q691 25 665 13T607 -6T543 -14Q506 -14 477 -1T432 39T423 111L448 288L436 290L407 189Q396 149 383 113T351 48T298 3T214 -14Q154 -14 114
11T53 83T32 191Q32 266 51 328T107 436T198 506T323 531Q375 531 412 521T469 501L581 529L629 510L616 145ZM279 89Q288 89 294 94T309 116T327 165T352 254L400 437Q396 440 385 443T360 447Q325 447 303 423T269 359T253 268T248 166Q248 132 252 116T263 94T279
89ZM381 791Q393 808 409 818T445 828Q481 828 504 796T524 707L308 577L263 623L381 791Z" />
<glyph unicode="&#xe2;" horiz-adv-x="697" d="M616 145Q615 125 619 113T643 101Q654 101 666 104T686 111L704 35Q691 25 665 13T607 -6T543 -14Q506 -14 477 -1T432 39T423 111L448 288L436 290L407 189Q396 149 383 113T351 48T298 3T214 -14Q154 -14 114
11T53 83T32 191Q32 266 51 328T107 436T198 506T323 531Q375 531 412 521T469 501L581 529L629 510L616 145ZM279 89Q288 89 294 94T309 116T327 165T352 254L400 437Q396 440 385 443T360 447Q325 447 303 423T269 359T253 268T248 166Q248 132 252 116T263 94T279
89ZM563 616L518 572L361 682L206 571L157 619L290 785Q305 805 321 814T354 823Q370 823 386 819T417 807L563 616Z" />
<glyph unicode="&#xe3;" horiz-adv-x="697" d="M616 145Q615 125 619 113T643 101Q654 101 666 104T686 111L704 35Q691 25 665 13T607 -6T543 -14Q506 -14 477 -1T432 39T423 111L448 288L436 290L407 189Q396 149 383 113T351 48T298 3T214 -14Q154 -14 114
11T53 83T32 191Q32 266 51 328T107 436T198 506T323 531Q375 531 412 521T469 501L581 529L629 510L616 145ZM279 89Q288 89 294 94T309 116T327 165T352 254L400 437Q396 440 385 443T360 447Q325 447 303 423T269 359T253 268T248 166Q248 132 252 116T263 94T279
89ZM433 608Q408 608 387 614T337 632Q303 646 283 653T255 661Q244 661 236 653T205 613L147 642Q172 697 189 727T224 770T264 783Q287 783 307 777T372 753Q406 740 424 734T459 728Q474 728 483 736T511 770L570 739Q549 691 527 663T482 621T433 608Z" />
<glyph unicode="&#xe4;" horiz-adv-x="697" d="M616 145Q615 125 619 113T643 101Q654 101 666 104T686 111L704 35Q691 25 665 13T607 -6T543 -14Q506 -14 477 -1T432 39T423 111L448 288L436 290L407 189Q396 149 383 113T351 48T298 3T214 -14Q154 -14 114
11T53 83T32 191Q32 266 51 328T107 436T198 506T323 531Q375 531 412 521T469 501L581 529L629 510L616 145ZM279 89Q288 89 294 94T309 116T327 165T352 254L400 437Q396 440 385 443T360 447Q325 447 303 423T269 359T253 268T248 166Q248 132 252 116T263 94T279
89ZM135 690Q135 733 165 758T238 783Q285 783 311 760T337 695Q337 652 308 627T233 602Q187 602 161 625T135 690ZM382 691Q382 734 412 759T486 784Q533 784 558 761T584 696Q584 653 555 628T481 603Q435 603 409 626T382 691Z" />
<glyph unicode="&#xe5;" horiz-adv-x="697" d="M616 145Q615 125 619 113T643 101Q654 101 666 104T686 111L704 35Q691 25 665 13T607 -6T543 -14Q506 -14 477 -1T432 39T423 111L448 288L436 290L407 189Q396 149 383 113T351 48T298 3T214 -14Q154 -14 114
11T53 83T32 191Q32 266 51 328T107 436T198 506T323 531Q375 531 412 521T469 501L581 529L629 510L616 145ZM279 89Q288 89 294 94T309 116T327 165T352 254L400 437Q396 440 385 443T360 447Q325 447 303 423T269 359T253 268T248 166Q248 132 252 116T263 94T279
89ZM357 578Q278 578 238 610T198 693Q198 728 215 757T270 804T369 822Q448 822 486 787T524 701Q524 649 482 614T357 578ZM357 641Q370 641 379 647T393 667T399 703Q399 725 394 737T381 754T362 759Q344 759 333 746T322 702Q322 669 331 655T357 641Z" />
<glyph unicode="&#xe6;" horiz-adv-x="877" d="M681 531Q728 531 766 514T826 467T848 395Q848 354 831 325T781 276T706 241T610 210L561 196Q564 175 574 157T604 127T656 116Q676 116 699 123T747 142T789 170L841 88Q818 60 789 41T728 9T669 -8T620 -14Q554
-14 508 9T435 67T400 138Q385 99 363 64T307 8T216 -14Q154 -14 113 12T52 86T32 202Q32 296 66 370T165 488T319 531Q351 531 374 525T415 511L474 550L540 531L529 481Q561 505 601 518T681 531ZM280 89Q292 89 301 102T319 142T340 210T367 309L402 438Q395
441 384 444T361 448Q319 448 294 413T258 316T247 179Q247 130 253 110T280 89ZM657 395Q657 415 653 425T642 439T627 444Q613 444 602 436T582 409T567 363T557 295L576 300Q599 306 616 315T645 342T657 395Z" />
<glyph unicode="&#xe7;" horiz-adv-x="572" d="M269 -252Q237 -252 204 -244T150 -224L173 -159Q191 -163 206 -165T241 -168Q255 -168 267 -166T288 -155T296 -133Q296 -120 285 -114T259 -108T227 -112L213 -91L242 -11Q184 -3 136 26T60 105T32 226Q32 289
50 344T105 442T202 507T343 531Q400 531 446 514T519 464T546 381Q546 341 520 316T453 290Q427 290 399 304T359 345L384 379Q398 398 397 412T385 435T357 444Q328 444 309 424T278 372T262 302T257 229Q257 192 265 165T291 123T343 109Q370 109 392 119T433
144T468 175L530 97Q519 82 492 59T424 15T326 -12L313 -42Q325 -43 344 -46T385 -59T420 -86T434 -133Q434 -161 417 -188T364 -234T269 -252Z" />
<glyph unicode="&#xe8;" horiz-adv-x="570" d="M349 531Q436 531 488 496T541 395Q541 368 534 344T504 299T442 259T334 219L254 196Q259 165 273 148T306 123T346 116Q368 116 391 123T438 143T482 170L534 88Q506 58 474 38T409 6T344 -9T289 -14Q215 -14 157
12T66 92T32 225Q32 326 71 394T181 496T349 531ZM350 396Q350 415 346 425T335 440T320 444Q304 444 290 431T266 385T250 295L282 304Q304 311 319 320T342 348T350 396ZM439 617L394 571L209 670Q193 679 181 694T169 732Q169 762 191 785T274 818L439 617Z"
/>
<glyph unicode="&#xe9;" horiz-adv-x="570" d="M349 531Q436 531 488 496T541 395Q541 368 534 344T504 299T442 259T334 219L254 196Q259 165 273 148T306 123T346 116Q368 116 391 123T438 143T482 170L534 88Q506 58 474 38T409 6T344 -9T289 -14Q215 -14 157
12T66 92T32 225Q32 326 71 394T181 496T349 531ZM350 396Q350 415 346 425T335 440T320 444Q304 444 290 431T266 385T250 295L282 304Q304 311 319 320T342 348T350 396ZM356 791Q368 808 384 818T420 828Q456 828 479 796T499 707L283 577L238 623L356 791Z"
/>
<glyph unicode="&#xea;" horiz-adv-x="570" d="M349 531Q436 531 488 496T541 395Q541 368 534 344T504 299T442 259T334 219L254 196Q259 165 273 148T306 123T346 116Q368 116 391 123T438 143T482 170L534 88Q506 58 474 38T409 6T344 -9T289 -14Q215 -14 157
12T66 92T32 225Q32 326 71 394T181 496T349 531ZM350 396Q350 415 346 425T335 440T320 444Q304 444 290 431T266 385T250 295L282 304Q304 311 319 320T342 348T350 396ZM538 616L493 572L336 682L181 571L132 619L265 785Q280 805 296 814T329 823Q345 823 361
819T392 807L538 616Z" />
<glyph unicode="&#xeb;" horiz-adv-x="570" d="M349 531Q436 531 488 496T541 395Q541 368 534 344T504 299T442 259T334 219L254 196Q259 165 273 148T306 123T346 116Q368 116 391 123T438 143T482 170L534 88Q506 58 474 38T409 6T344 -9T289 -14Q215 -14 157
12T66 92T32 225Q32 326 71 394T181 496T349 531ZM350 396Q350 415 346 425T335 440T320 444Q304 444 290 431T266 385T250 295L282 304Q304 311 319 320T342 348T350 396ZM110 690Q110 733 140 758T213 783Q260 783 286 760T312 695Q312 652 283 627T208 602Q162
602 136 625T110 690ZM357 691Q357 734 387 759T461 784Q508 784 533 761T559 696Q559 653 530 628T456 603Q410 603 384 626T357 691Z" />
<glyph unicode="&#xec;" horiz-adv-x="375" d="M100 381Q102 399 97 409T79 420Q67 420 54 417T24 407L-3 492Q17 503 61 517T162 531Q208 531 241 518T293 473T306 390L281 142Q280 124 284 112T306 99Q320 99 332 102T355 108L373 32Q357 22 328 12T265 -6T203
-14Q154 -14 124 0T82 46T75 129L100 381ZM532 617L487 571L302 670Q286 679 274 694T262 732Q262 762 284 785T367 818L532 617Z" />
<glyph unicode="&#xed;" horiz-adv-x="375" d="M100 381Q102 399 97 409T79 420Q67 420 54 417T24 407L-3 492Q17 503 61 517T162 531Q208 531 241 518T293 473T306 390L281 142Q280 124 284 112T306 99Q320 99 332 102T355 108L373 32Q357 22 328 12T265 -6T203
-14Q154 -14 124 0T82 46T75 129L100 381ZM449 791Q461 808 477 818T513 828Q549 828 572 796T592 707L376 577L331 623L449 791Z" />
<glyph unicode="&#xee;" horiz-adv-x="375" d="M100 381Q102 399 97 409T79 420Q67 420 54 417T24 407L-3 492Q17 503 61 517T162 531Q208 531 241 518T293 473T306 390L281 142Q280 124 284 112T306 99Q320 99 332 102T355 108L373 32Q357 22 328 12T265 -6T203
-14Q154 -14 124 0T82 46T75 129L100 381ZM631 616L586 572L429 682L274 571L225 619L358 785Q373 805 389 814T422 823Q438 823 454 819T485 807L631 616Z" />
<glyph unicode="&#xef;" horiz-adv-x="375" d="M100 381Q102 399 97 409T79 420Q67 420 54 417T24 407L-3 492Q17 503 61 517T162 531Q208 531 241 518T293 473T306 390L281 142Q280 124 284 112T306 99Q320 99 332 102T355 108L373 32Q357 22 328 12T265 -6T203
-14Q154 -14 124 0T82 46T75 129L100 381ZM203 690Q203 733 233 758T306 783Q353 783 379 760T405 695Q405 652 376 627T301 602Q255 602 229 625T203 690ZM450 691Q450 734 480 759T554 784Q601 784 626 761T652 696Q652 653 623 628T549 603Q503 603 477 626T450
691Z" />
<glyph unicode="&#xf0;" horiz-adv-x="656" d="M306 -15Q215 -15 154 17T63 109T33 254Q33 301 43 342T73 419T123 481T193 521T282 535Q343 535 381 506T436 444L444 448Q435 475 417 509T377 576T330 634L225 582L194 651L268 689Q248 701 226 710T180 728T132
742L155 813Q199 808 244 799T329 779T397 754L514 813L545 743L470 706Q528 649 559 590T602 471T615 354Q615 249 585 166T487 34T306 -15ZM319 76Q343 76 357 94T378 153T385 262Q385 308 384 342T377 397T360 429T329 439Q300 439 284 414T263 343T257 237Q257
194 260 157T276 98T319 76Z" />
<glyph unicode="&#xf1;" horiz-adv-x="686" d="M693 32Q678 22 647 11T580 -7T515 -14Q451 -14 422 16T398 102L423 361Q425 375 421 381T411 387Q403 387 399 382T389 361T374 310L289 0H64L80 390Q81 405 76 412T61 420Q53 420 43 417T18 409L-7 492Q4 498 32
507T96 524T166 531Q219 531 249 505T272 423L236 139L248 136L312 382Q324 429 344 462T398 513T488 531Q535 531 567 514T616 464T629 391L611 142Q610 120 614 110T635 99Q646 99 656 102T672 107L693 32ZM440 608Q415 608 394 614T344 632Q310 646 290 653T262
661Q251 661 243 653T212 613L154 642Q179 697 196 727T231 770T271 783Q294 783 314 777T379 753Q413 740 431 734T466 728Q481 728 490 736T518 770L577 739Q556 691 534 663T489 621T440 608Z" />
<glyph unicode="&#xf2;" horiz-adv-x="642" d="M301 -17Q208 -17 149 15T62 105T33 238Q33 298 50 351T104 446T201 510T345 534Q434 534 492 504T580 418T609 281Q609 224 593 171T541 75T446 8T301 -17ZM314 75Q349 75 364 105T382 182T386 282Q386 327 384
362T369 418T330 439Q314 439 301 430T278 399T263 336T258 233Q258 184 261 149T277 94T314 75ZM443 617L398 571L213 670Q197 679 185 694T173 732Q173 762 195 785T278 818L443 617Z" />
<glyph unicode="&#xf3;" horiz-adv-x="642" d="M301 -17Q208 -17 149 15T62 105T33 238Q33 298 50 351T104 446T201 510T345 534Q434 534 492 504T580 418T609 281Q609 224 593 171T541 75T446 8T301 -17ZM314 75Q349 75 364 105T382 182T386 282Q386 327 384
362T369 418T330 439Q314 439 301 430T278 399T263 336T258 233Q258 184 261 149T277 94T314 75ZM360 791Q372 808 388 818T424 828Q460 828 483 796T503 707L287 577L242 623L360 791Z" />
<glyph unicode="&#xf4;" horiz-adv-x="642" d="M301 -17Q208 -17 149 15T62 105T33 238Q33 298 50 351T104 446T201 510T345 534Q434 534 492 504T580 418T609 281Q609 224 593 171T541 75T446 8T301 -17ZM314 75Q349 75 364 105T382 182T386 282Q386 327 384
362T369 418T330 439Q314 439 301 430T278 399T263 336T258 233Q258 184 261 149T277 94T314 75ZM542 616L497 572L340 682L185 571L136 619L269 785Q284 805 300 814T333 823Q349 823 365 819T396 807L542 616Z" />
<glyph unicode="&#xf5;" horiz-adv-x="642" d="M301 -17Q208 -17 149 15T62 105T33 238Q33 298 50 351T104 446T201 510T345 534Q434 534 492 504T580 418T609 281Q609 224 593 171T541 75T446 8T301 -17ZM314 75Q349 75 364 105T382 182T386 282Q386 327 384
362T369 418T330 439Q314 439 301 430T278 399T263 336T258 233Q258 184 261 149T277 94T314 75ZM412 608Q387 608 366 614T316 632Q282 646 262 653T234 661Q223 661 215 653T184 613L126 642Q151 697 168 727T203 770T243 783Q266 783 286 777T351 753Q385 740
403 734T438 728Q453 728 462 736T490 770L549 739Q528 691 506 663T461 621T412 608Z" />
<glyph unicode="&#xf6;" horiz-adv-x="642" d="M301 -17Q208 -17 149 15T62 105T33 238Q33 298 50 351T104 446T201 510T345 534Q434 534 492 504T580 418T609 281Q609 224 593 171T541 75T446 8T301 -17ZM314 75Q349 75 364 105T382 182T386 282Q386 327 384
362T369 418T330 439Q314 439 301 430T278 399T263 336T258 233Q258 184 261 149T277 94T314 75ZM114 690Q114 733 144 758T217 783Q264 783 290 760T316 695Q316 652 287 627T212 602Q166 602 140 625T114 690ZM361 691Q361 734 391 759T465 784Q512 784 537 761T563
696Q563 653 534 628T460 603Q414 603 388 626T361 691Z" />
<glyph unicode="&#xf7;" horiz-adv-x="582" d="M67 231L72 382H520L515 231H67ZM274 10Q230 10 206 36T184 100Q187 139 216 165T287 192Q332 192 355 167T377 102Q375 63 346 37T274 10ZM306 421Q262 421 238 447T216 510Q219 549 248 576T319 603Q364 603 387
578T409 513Q407 474 378 448T306 421Z" />
<glyph unicode="&#xf8;" horiz-adv-x="642" d="M17 -14L87 65Q59 98 46 142T33 238Q33 298 50 351T104 446T201 510T345 534Q385 534 419 528T481 510L500 531H639L563 445Q587 414 598 373T609 281Q609 224 593 171T541 75T446 8T301 -17Q264 -17 232 -12T173
5L156 -14H17ZM314 75Q343 75 357 96T378 154T386 232Q386 236 386 239T386 245L270 114Q276 95 286 85T314 75ZM258 258L378 393Q372 415 362 427T330 439Q315 439 303 432T281 406T266 354T258 270Q258 267 258 265T258 258Z" />
<glyph unicode="&#xf9;" horiz-adv-x="675" d="M-7 486Q12 496 44 506T112 523T175 531Q235 531 263 502T286 416L260 160Q259 145 261 139T273 132Q279 132 283 138T292 160T304 200L398 517H623L599 128Q598 114 603 106T617 98Q629 98 641 101T661 108L682
32Q668 23 650 15T610 0T567 -10T526 -14Q465 -14 433 18T411 115L451 378L440 381L364 130Q347 74 322 43T266 -1T194 -14Q130 -14 92 25T57 126L76 384Q78 405 71 412T51 419Q43 419 35 418T14 411L-7 486ZM436 617L391 571L206 670Q190 679 178 694T166 732Q166
762 188 785T271 818L436 617Z" />
<glyph unicode="&#xfa;" horiz-adv-x="675" d="M-7 486Q12 496 44 506T112 523T175 531Q235 531 263 502T286 416L260 160Q259 145 261 139T273 132Q279 132 283 138T292 160T304 200L398 517H623L599 128Q598 114 603 106T617 98Q629 98 641 101T661 108L682
32Q668 23 650 15T610 0T567 -10T526 -14Q465 -14 433 18T411 115L451 378L440 381L364 130Q347 74 322 43T266 -1T194 -14Q130 -14 92 25T57 126L76 384Q78 405 71 412T51 419Q43 419 35 418T14 411L-7 486ZM353 791Q365 808 381 818T417 828Q453 828 476 796T496
707L280 577L235 623L353 791Z" />
<glyph unicode="&#xfb;" horiz-adv-x="675" d="M-7 486Q12 496 44 506T112 523T175 531Q235 531 263 502T286 416L260 160Q259 145 261 139T273 132Q279 132 283 138T292 160T304 200L398 517H623L599 128Q598 114 603 106T617 98Q629 98 641 101T661 108L682
32Q668 23 650 15T610 0T567 -10T526 -14Q465 -14 433 18T411 115L451 378L440 381L364 130Q347 74 322 43T266 -1T194 -14Q130 -14 92 25T57 126L76 384Q78 405 71 412T51 419Q43 419 35 418T14 411L-7 486ZM535 616L490 572L333 682L178 571L129 619L262 785Q277
805 293 814T326 823Q342 823 358 819T389 807L535 616Z" />
<glyph unicode="&#xfc;" horiz-adv-x="675" d="M-7 486Q12 496 44 506T112 523T175 531Q235 531 263 502T286 416L260 160Q259 145 261 139T273 132Q279 132 283 138T292 160T304 200L398 517H623L599 128Q598 114 603 106T617 98Q629 98 641 101T661 108L682
32Q668 23 650 15T610 0T567 -10T526 -14Q465 -14 433 18T411 115L451 378L440 381L364 130Q347 74 322 43T266 -1T194 -14Q130 -14 92 25T57 126L76 384Q78 405 71 412T51 419Q43 419 35 418T14 411L-7 486ZM107 690Q107 733 137 758T210 783Q257 783 283 760T309
695Q309 652 280 627T205 602Q159 602 133 625T107 690ZM354 691Q354 734 384 759T458 784Q505 784 530 761T556 696Q556 653 527 628T453 603Q407 603 381 626T354 691Z" />
<glyph unicode="&#xfd;" horiz-adv-x="598" d="M358 -56Q339 -95 320 -127T276 -183T222 -219T153 -232Q90 -232 60 -205T29 -138Q29 -91 64 -69T147 -44L157 -86Q162 -104 167 -114T180 -130T199 -135Q210 -135 217 -131T231 -119T243 -98L292 0H260Q214 0 184
11T128 61Q112 88 100 125T81 212T75 326Q75 337 75 347T76 367T76 388Q76 405 71 411T52 418Q48 418 39 418T16 413L-7 495Q11 504 39 512T99 525T160 531Q224 531 253 504T283 440Q283 427 283 413T281 379T280 332Q280 291 282 255T292 185T313 113Q316 105
319 101T327 95T336 93H338L435 325Q444 344 444 358T436 382T403 398L370 406Q365 465 392 498T471 531Q493 531 515 522T551 492T566 437Q566 415 561 392T546 344T523 290T493 226L358 -56ZM343 791Q355 808 371 818T407 828Q443 828 466 796T486 707L270 577L225
623L343 791Z" />
<glyph unicode="&#xfe;" horiz-adv-x="694" d="M66 -225L42 -198L62 64L81 668L1 681L12 767H261L277 756L265 426L230 189L239 187L282 336Q298 392 314 429T351 489T402 521T474 531Q527 531 569 508T636 438T662 316Q662 256 646 198T594 91T500 15T358 -14Q324
-14 293 -8T243 8L229 -132L333 -153L323 -229L66 -225ZM413 428Q405 428 399 423T383 398T361 335T326 213L289 80Q301 75 312 72T332 69Q361 69 381 91T416 152T436 241T443 351Q443 375 441 390T434 413T425 425T413 428Z" />
<glyph unicode="&#xff;" horiz-adv-x="598" d="M358 -56Q339 -95 320 -127T276 -183T222 -219T153 -232Q90 -232 60 -205T29 -138Q29 -91 64 -69T147 -44L157 -86Q162 -104 167 -114T180 -130T199 -135Q210 -135 217 -131T231 -119T243 -98L292 0H260Q214 0 184
11T128 61Q112 88 100 125T81 212T75 326Q75 337 75 347T76 367T76 388Q76 405 71 411T52 418Q48 418 39 418T16 413L-7 495Q11 504 39 512T99 525T160 531Q224 531 253 504T283 440Q283 427 283 413T281 379T280 332Q280 291 282 255T292 185T313 113Q316 105
319 101T327 95T336 93H338L435 325Q444 344 444 358T436 382T403 398L370 406Q365 465 392 498T471 531Q493 531 515 522T551 492T566 437Q566 415 561 392T546 344T523 290T493 226L358 -56ZM97 690Q97 733 127 758T200 783Q247 783 273 760T299 695Q299 652
270 627T195 602Q149 602 123 625T97 690ZM344 691Q344 734 374 759T448 784Q495 784 520 761T546 696Q546 653 517 628T443 603Q397 603 371 626T344 691Z" />
<glyph unicode="&#x2013;" horiz-adv-x="524" d="M26 234L29 324H523L520 234H26Z" />
<glyph unicode="&#x2014;" horiz-adv-x="1024" d="M17 234L20 324H1014L1011 234H17Z" />
<glyph unicode="&#x2018;" horiz-adv-x="287" d="M158 482Q119 482 96 498T62 538T51 584Q51 625 69 662T131 735T248 810L288 757Q252 735 228 717T193 682T181 647Q181 634 189 627T218 612L257 599Q259 574 251 547T221 501T158 482Z" />
<glyph unicode="&#x2019;" horiz-adv-x="297" d="M75 471L35 529Q79 554 101 570T132 600T140 627Q140 641 132 648T103 662L63 674Q59 704 67 733T99 780T166 799Q204 799 227 783T262 744T273 697Q273 657 255 620T193 547T75 471Z" />
<glyph unicode="&#x201a;" horiz-adv-x="311" d="M67 -159L27 -101Q71 -76 93 -60T124 -31T132 -3Q132 11 124 18T95 32L55 43Q51 73 59 102T91 150T158 169Q196 169 219 153T253 113T264 67Q264 26 246 -11T184 -84T67 -159Z" />
<glyph unicode="&#x201c;" horiz-adv-x="521" d="M158 482Q119 482 96 498T62 538T51 584Q51 625 69 662T131 735T248 810L288 757Q252 735 228 717T193 682T181 647Q181 634 189 627T218 612L257 599Q259 574 251 547T221 501T158 482ZM393 482Q354 482 331 498T297
538T286 584Q286 625 304 662T366 735T483 810L523 757Q487 735 463 717T428 682T416 647Q416 634 424 627T453 612L492 599Q494 574 486 547T456 501T393 482Z" />
<glyph unicode="&#x201d;" horiz-adv-x="541" d="M75 471L35 529Q79 554 101 570T132 600T140 627Q140 641 132 648T103 662L63 674Q59 704 67 733T99 780T166 799Q204 799 227 783T262 744T273 697Q273 657 255 620T193 547T75 471ZM319 471L279 529Q323 554
345 570T376 600T384 627Q384 641 376 648T347 662L307 674Q303 704 311 733T343 780T410 799Q448 799 471 783T506 744T517 697Q517 657 499 620T437 547T319 471Z" />
<glyph unicode="&#x201e;" horiz-adv-x="556" d="M67 -159L27 -101Q71 -76 93 -60T124 -31T132 -3Q132 11 124 18T95 32L55 43Q51 73 59 102T91 150T158 169Q196 169 219 153T253 113T264 67Q264 26 246 -11T184 -84T67 -159ZM311 -159L271 -101Q315 -76 337 -60T368
-31T376 -3Q376 11 368 18T339 32L299 43Q295 73 303 102T335 150T402 169Q440 169 463 153T497 113T508 67Q508 26 490 -11T428 -84T311 -159Z" />
<glyph unicode="&#x2022;" horiz-adv-x="538" d="M80 304Q80 371 103 407T168 456T262 470Q321 470 365 456T434 408T458 306Q458 240 434 205T367 156T266 142Q213 142 171 155T104 203T80 304Z" />
<glyph unicode="&#x2039;" horiz-adv-x="389" d="M344 446Q333 420 318 393T288 340T259 297T238 269Q255 254 272 226T307 162T339 82L290 45Q257 79 217 113T133 180T45 235L59 332Q105 350 149 376T232 431T294 485L344 446Z" />
<glyph unicode="&#x203a;" horiz-adv-x="392" d="M50 84Q64 115 82 147T120 208T159 260Q141 281 123 307T87 367T51 451L104 488Q146 445 186 409T268 345T349 295L334 199Q261 164 199 123T100 45L50 84Z" />
</font>
</defs>
</svg>
