<?xml version="1.0" standalone="no"?>
<!DOCTYPE svg PUBLIC "-//W3C//DTD SVG 20010904//EN"
 "http://www.w3.org/TR/2001/REC-SVG-20010904/DTD/svg10.dtd">
<svg version="1.0" xmlns="http://www.w3.org/2000/svg"
 width="489.000000pt" height="489.000000pt" viewBox="0 0 489.000000 489.000000"
 preserveAspectRatio="xMidYMid meet">
<metadata>
Created by potrace 1.14, written by Peter Selinger 2001-2017
</metadata>
<g transform="translate(0.000000,489.000000) scale(0.100000,-0.100000)"
fill="#000000" stroke="none">
<path d="M2420 4797 c0 -3 42 -30 93 -61 253 -149 501 -385 672 -642 369 -555
523 -1216 464 -1999 -42 -569 -235 -1086 -554 -1480 -131 -163 -333 -347 -499
-456 l-68 -44 34 -3 c18 -2 98 1 177 7 488 38 862 169 1221 430 103 75 322
297 399 406 244 345 383 735 421 1180 20 239 10 620 -21 805 -45 272 -108 480
-207 684 -125 257 -281 465 -477 635 -342 297 -724 457 -1245 520 -104 12
-410 26 -410 18z"/>
<path d="M1040 4200 c-98 -12 -291 -60 -327 -82 -43 -26 -149 -145 -212 -240
-212 -317 -336 -690 -376 -1128 -69 -758 102 -1426 483 -1890 58 -70 199 -215
234 -241 41 -30 174 -49 343 -49 392 0 664 112 944 386 17 18 20 25 10 28
-222 78 -332 146 -458 283 -251 274 -376 716 -357 1263 7 217 19 310 68 510
39 158 125 356 206 470 113 159 298 301 460 355 l54 17 -34 29 c-126 110 -314
207 -485 250 -184 46 -374 60 -553 39z"/>
</g>
</svg>
